<mxfile host="app.diagrams.net" modified="2024-02-09T16:29:38.984Z" agent="Mozilla/5.0 (Windows NT 10.0; Win64; x64) AppleWebKit/537.36 (KHTML, like Gecko) Chrome/121.0.0.0 Safari/537.36" etag="le9NfIcJQ7iqJkAtzSlE" version="23.1.2" type="device">
  <diagram name="Page-1" id="SpcNOfgPr6vnyvv0pw0s">
    <mxGraphModel dx="882" dy="570" grid="1" gridSize="10" guides="1" tooltips="1" connect="1" arrows="1" fold="1" page="1" pageScale="1" pageWidth="827" pageHeight="1169" math="0" shadow="0">
      <root>
        <mxCell id="0" />
        <mxCell id="1" parent="0" />
        <mxCell id="IxnNOI3tdOuVyCFdKRpo-1" value="" style="endArrow=classic;html=1;rounded=0;" parent="1" edge="1">
          <mxGeometry width="50" height="50" relative="1" as="geometry">
            <mxPoint x="200" y="640" as="sourcePoint" />
            <mxPoint x="600" y="640" as="targetPoint" />
          </mxGeometry>
        </mxCell>
        <mxCell id="IxnNOI3tdOuVyCFdKRpo-2" value="" style="endArrow=classic;html=1;rounded=0;" parent="1" edge="1">
          <mxGeometry width="50" height="50" relative="1" as="geometry">
            <mxPoint x="200" y="640" as="sourcePoint" />
            <mxPoint x="200" y="240" as="targetPoint" />
          </mxGeometry>
        </mxCell>
        <mxCell id="IxnNOI3tdOuVyCFdKRpo-3" value="&lt;font style=&quot;font-size: 16px;&quot;&gt;Correlation between SDI and shape&lt;/font&gt;" style="text;html=1;strokeColor=none;fillColor=none;align=center;verticalAlign=middle;whiteSpace=wrap;rounded=0;" parent="1" vertex="1">
          <mxGeometry x="310" y="660" width="170" height="30" as="geometry" />
        </mxCell>
        <mxCell id="IxnNOI3tdOuVyCFdKRpo-4" value="&lt;font style=&quot;font-size: 16px;&quot;&gt;Correlation between FAI and shape&lt;/font&gt;" style="text;html=1;strokeColor=none;fillColor=none;align=center;verticalAlign=middle;whiteSpace=wrap;rounded=0;rotation=-90;" parent="1" vertex="1">
          <mxGeometry x="80" y="430" width="170" height="30" as="geometry" />
        </mxCell>
        <mxCell id="IxnNOI3tdOuVyCFdKRpo-7" value="High" style="text;html=1;strokeColor=none;fillColor=none;align=center;verticalAlign=middle;whiteSpace=wrap;rounded=0;" parent="1" vertex="1">
          <mxGeometry x="160" y="230" width="30" height="30" as="geometry" />
        </mxCell>
        <mxCell id="IxnNOI3tdOuVyCFdKRpo-8" value="Low" style="text;html=1;strokeColor=none;fillColor=none;align=center;verticalAlign=middle;whiteSpace=wrap;rounded=0;" parent="1" vertex="1">
          <mxGeometry x="180" y="639" width="40" height="30" as="geometry" />
        </mxCell>
        <mxCell id="IxnNOI3tdOuVyCFdKRpo-13" value="High" style="text;html=1;strokeColor=none;fillColor=none;align=center;verticalAlign=middle;whiteSpace=wrap;rounded=0;" parent="1" vertex="1">
          <mxGeometry x="560" y="639" width="60" height="30" as="geometry" />
        </mxCell>
        <mxCell id="IxnNOI3tdOuVyCFdKRpo-14" value="“&lt;font style=&quot;font-size: 14px;&quot;&gt;least-effort”&lt;br&gt;shape imposition&amp;nbsp;&lt;/font&gt;" style="text;html=1;strokeColor=none;fillColor=none;align=center;verticalAlign=middle;whiteSpace=wrap;rounded=0;shadow=0;" parent="1" vertex="1">
          <mxGeometry x="265.21" y="370" width="80" height="30" as="geometry" />
        </mxCell>
        <mxCell id="IxnNOI3tdOuVyCFdKRpo-15" value="&lt;font style=&quot;font-size: 14px;&quot;&gt;highly designed form&lt;br&gt;&lt;/font&gt;" style="text;html=1;strokeColor=none;fillColor=none;align=center;verticalAlign=middle;whiteSpace=wrap;rounded=0;" parent="1" vertex="1">
          <mxGeometry x="470" y="370" width="80" height="30" as="geometry" />
        </mxCell>
        <mxCell id="IxnNOI3tdOuVyCFdKRpo-16" value="&lt;font style=&quot;font-size: 14px;&quot;&gt;simple debitage&lt;br&gt;&lt;/font&gt;" style="text;html=1;strokeColor=none;fillColor=none;align=center;verticalAlign=middle;whiteSpace=wrap;rounded=0;" parent="1" vertex="1">
          <mxGeometry x="265.21" y="555" width="80" height="30" as="geometry" />
        </mxCell>
        <mxCell id="IxnNOI3tdOuVyCFdKRpo-17" value="&lt;font style=&quot;font-size: 14px;&quot;&gt;spatially&lt;br/&gt;restricted&amp;nbsp;shaping&lt;br/&gt;and/or resharpening&lt;/font&gt;" style="text;html=1;strokeColor=none;fillColor=none;align=center;verticalAlign=middle;whiteSpace=wrap;rounded=0;" parent="1" vertex="1">
          <mxGeometry x="470" y="560" width="80" height="30" as="geometry" />
        </mxCell>
        <mxCell id="PmOPJKFVFv-9QvEDGE0O-2" value="" style="shape=image;verticalLabelPosition=bottom;labelBackgroundColor=default;verticalAlign=top;aspect=fixed;imageAspect=0;image=data:image/png,iVBORw0KGgoAAAANSUhEUgAAAPwAAAHLCAMAAADbfQX0AAAAAXNSR0IArs4c6QAAAARnQU1BAACxjwv8YQUAAAH4UExURQAAAAAAAAAAAAAAAAAAAAAAAAAAAAAAAAAAAAAAAAAAAAAAAAAAAAAAAAAAAAAAAAAAAAAAAAAAAAAAAAAAAAAAAAAAAAAAAAAAAAAAAAAAAAAAAAAAAAAAAAAAAAAAAAAAAAAAAAAAAAAAAAAAAAAAAAAAAAAAAAAAAAAAAAAAAAAAAAAAAAAAAAAAAAAAAAAAAAAAAAAAAAAAAAAAAAAAAAAAAAAAAAAAAAAAAAAAAAAAAAAAAAAAAAAAAAAAAAAAAAAAAAAAAAAAAAAAAAAAAAAAAAAAAAAAAAAAAAAAAAAAAAAAAAAAAAAAAAAAAAAAAAAAAAAAAAAAAAAAAAAAAAAAAAAAAAAAAAAAAAAAAAAAAAAAAAAAAAAAAAAAAAAAAAAAAAAAAAAAAAAAAAAAAAAAAAAAAAAAAAAAAAAAAAAAAAAAAAAAAAAAAAAAAAAAAAAAAAAAAAAAAAAAAAAAAAAAAAAAAAAAAAAAAAAAAAAAAAAAAAAAAAAAAAAAAAAAAAAAAAAAAAAAAAAAAAAAAAAAAAAAAAAAAAAAAAAAAAAAAAAAAAAAAAAAAAAAAAAAAAAAAAAAAAAAAAAAAAAAAAAAAAAAAAAAAAAAAAAAAAAAAAAAAAAAAAAAAAAAAAAAAAAAAAAAAAAAAAAAAAAAAAAAAAAAANP6DUcAAACndFJOUwABAgMEBQYICgsMDg8QERMUFRcYGRwdICIjJCUmKCosLS8wMjQ1ODk8QENERUhKTFBRU1RYW1xeX2BjZGZoaWpsbW5vcHFydHV4eXp8f4CBgoOHiIqLj5CSk5WWl5qbn6GjpaerrK2ur7Kztba3uLq7vL2/wMHCw8TFxsfIysvOz9DR0tPW19rb3N7f4OHj5ebn6Onq6+3u7/Dx8vP09vf4+fr7/P3+2lmnpQAAAAlwSFlzAAAywAAAMsABKGRa2wAALXBJREFUeF7tff1jXN1WVt7LyFxHI9EYItEYCSEm1NJoaiXGeqsWaiUG3mqildpQWyVEq8V4DVotEWIIBIIB4w0wOi8MvPNves7Zaz17n3P2x9rnIx+9eX5pZ+Zk5uyz1157rWd97LE73OEOd7jDHe5whzvcoTqmlhPMdunVdxMe7JyPFM4/vt18MEFvfzdg/hONHDjZnqPPPnNM7gxpyDlc7DyboSs+X6xe0mgtONkYp6s+TzyjcTpwuUbXfY54SoN0402PLv3ssEoj9OFkgS7+zLDcpwF6MXzWoes/J8zlxn62v3/oUH6Hi/QXnw8mzmhsKc5Xs/fG51c298qPYPi56b3OBxpZguEz067tru2YzyXDl/TZZ4JNGlaC4X16T2P60dsBfaqw+zlp/fs0qBSP6L085k/oY4Wjz8fiHb+gMSV4Qe8V0XtLFygMtz8Xrf+ERpTANfYEj/Oi/2ma3r/l+EjjSTBJb9kwt0cXKZx/HgaPntL39I4DT3M+3/AxvX2bMUGDSfSYb+JT3M+bgYflneG2YZyGMuqHndbZU7qWsDdFH9xa8IBe0WsfJgxzKMWt93N5F5Nt3msFi/fdrWb5ujSaA3odwrSxO6S4UK7A7QSTGCv0OojOS/oLxt6tnfwOWa4n9FqC9bzBMzpbog9uGx7SAJ7SaxGKDPdwgz64XeCJv4zz1Dorh+rvGHu3kdxdo5vfptdidJ7lZf9knj64RWBftYKfMpuf/P6t2/JX6M736HUUOpv5AM+rW+bn8uQt0+tIzB/R3yschJyDGwWe+EN6HY3eK/oGhdPbRPHs000/pNcVkA/w9R/Q2zcfy3TLp3UW60xO7w2f09s3HjzxUQZOCb0d+hqFnduh9hbodn+/LhX9JKf1D26FvQMHZb8uH7eYi2wc3wKl39GU9fDjRi0DrfOTf0DflOEWjJ73OcKnlcqLdbrA74yOb3wayy7dKXDyuNJq7TwveLgJzmfpwxuKXvmWR/3t+Cl7cEx/nMMNH/063WYBe1F8dO+JdegJbvboD+guSzjZlE7/zHaBzfx9+jfF+Q2mtafpHg/WLQkpB4/DtFx3paQ0+kumHBzf3Ej2l3SLT8emX1lW/2B3xXfv0+tvy8/sbH5swpSnDzfV1pviAafCOb5ZTj9JNv+D7ceLpP8788vz0+r/kwtP3xYCNwpbaUpHzxy9JAxyHXhD90ds/cS2ZfYznOy+3nxzqOzX/unpqTVBNcEpUQKdd/RGinX13g0Dm/UjcE9T9rxbKV5ikZijH1YkSdoFC+exsSxnqg//0Bxk5z29m+DiBpp6j+jeRvlNveLw9+7R3xN6RkDr6MapfGTh7NMbwMy2kaAjwuB1mbqa5HqFBJWo0Tbxmm5sZHFlu6vvI6b/4kurA7dgqM8blsCxyKPboTcKmNpwqf48hnurrkIcrKvR6PJGWXo93qUvXW73El3gw8WbRz4r8AVdluAdvXUjAALnCb1Rgoph/fMXe6XUU4Vf3Xkc4j5MlS8OfrcP5Ft+dFqfquYijbxOPnj+8s3+++31hd7E9OKDtV/JPrGnaebR02b+2Y0h9SZ5Nofu5HGVi/uGXpl4nn0iMlvntOJ4SW9dNzpMV/uSpxUXXdoHEyhtcEyv/FAPKsXwhgRyUEV06HG5lIFqG3xXbRQigrKjoxnSfJ92Mcnu28A3Gcr4tQ2eIpuSRW9sqdI/aBkwb57RG1YoK89qBagv2KVXAWxnF6e4uAE5Sws8F16jk0geq5pSfPdAZrHDohiNXtNb1wh25vxWF+UoWZOMuorAEYqxUa927YVJnHnlF3pS9iN7tFkpQ6Hcj2lT5xO9c13osBSeeMk1DmPZ03SU1S6U+7EZvdlfM6uDifdT82QCXtDLAnpKbUjV90Z2dYqL67XzeN8N1BRQIrLNwEuh4nJSue/q0iSHD3k14DyMgL01QzuCyx15nH06kM6jUbp1nSkrHGN4S68dIHXXd7nqU+rzTXoZhA5tnF0fpTXBusfvjfLEu6Se98tL6dRPa513fbWYXEFmtVo1uPTA/YgoY1U89bowf3BtSQus7vx6ep6u8jyijqInxVOPvKcKGb4NgdVdYIfmFeqLNtBUiqd+FoJ/XVPPj9+/4fDEe+2xnnINnRRgCdqzv568fJ74gI3NyTV+2o2qrsXOShcOTkw9R2PocBDFr+74EQVycWnjkBM0OgvkOgpSUCzst2zZ6wulzpOj/oFeBtFFCGeL3rlCTHMmgX9KlfEWcnwSTNL3ifN3QOPL6L9Ggc3Gu5bBcTkJfYBW/VHoKTFm1PUJrrz0HELvX/EcWD8Pd4Mbp+ck3u5QlXDVoTsIfd/72B/QVcEVn4Jc1aE0a3VLXX/1wSsIvTe1vMfRjID9q8AqzMeAm7inLk8mQLpSmgGE/sD7u0y1DmTJFFyTJhR84v4SXGmmyiQbl36hB8kuNcKoi4RU8MHmXalrB/Lcq8MRXhEr8CnSeUdh9ZgC8neVTCYm3r+U2fz2hC+LYMGX2S16s7tC54Yn3i/0YBxiAqrkCAifF+z7qwtdYeL9VD07NFGhdN5Cj0WCjwo8N0fUNDjF1m+4sARHJlHwOhYJPsyIi6va7NgS82/xE5x/FmuBkAUhEnwi/BNcVZ8J7nfmn3i2a6MTpzggIxJ82FqBuEFTwMR76xwh9H+f3pCDcx0kgq+JTKlNXA888V6ycZqfUIUSeCZJJIIP7vxqVB4m3muDGg2/4pNnmJyUCD7ayg2uIlWBXSnvxEPoU8TnEHAkUsBKw7m5iogtLBffxLOVqhC/DcEuFkTi+NKryEbm6mbvxLPQ/7H6Jz5bcp62sPOwLCNo2ac32gPflde4g9D/C/VPIIppA2vV8HR2IGWt63sOvpx5dBGE/mNHcRkVYircakdA/cGvDV9aDwhT+PYvFvrBLOcji1k5DaYC+sEiShaStje7DlOGZhlNERD6ZGVQzZE8/qjBu0qQ04K+P6U3WgJz8D4VZgh98oqeVoWp73KGtad7agZt37fq1KOMxkecGEKfgB5Xv8J9sW4NlpJhs2s1RQVNPDzBMVPoE3BXwNg6yM7a4dHPqz8N8gHg1Or1KPEDToTHSc0LfQJSRxFMVobsOf9G9qfBLC0weS1WmiLjzsdD54U+wXgUM8NQIf3/wqvZT/5iC5KmssXjIfSKRwMVhD4F70QhvZWD+qM9JPJ7uy1x4froI73ROJYx9hP3HJaEPkGPI8kx3ROUdrmPDIC+LwTfoYtGl/RG05jlYY0Gnv43bGxB6FNwEsFlRCw14z7/5/LYDP+sd/Qo2Gxnr4N147XtmNgsGP48fZ9C5ooGWTiPNUPpGz0M3BjhkgPD8m0n0IiF+jKwOnJtPK8c50FH/3Lfvd23u9fpvC+PM7fEF+WEPgWeiry7GVUUzBuFhEMnQdvuXsdpNb7Yiz60pvyAUIUjDqzQ9pXMdg8rzjl6WPdtqHv0fHrvXrWr2A0sLT1QCenTljnowRu140MHUzVJn7ei7lljecqZdI/+Y9tF8ywW0jY/xuDHZjF617rBVtQ8nyFw4uFTu/zv+/xwhKOn31SCPqNLaF9bZQ+hi+aTc9hkda6oDjye0dC1I8ExkI2eUlbpcU/q0b+3eTl49o0XXkzxpLmc+B6HY30aWbuEolM7yGRlWZvUdsaxRbQhm43zGfxYXbmGs/rG+oUuHyZ0x4++wBahwWPjNvoEDcq7eRdbccMZeURCulZ85yl+eHTu1TeTyCTwyAeDBq8ZILNL0n5piPiwRr9ZG9jAvLT6M8tGX/ZQq0K9csOjLw1+rGf0Ceo/L+g9ZOQ1XHnA6s5i33QeQM0mCDepjBg9eWpmoLYDUynBUX6BwRIRpy2LMM3qrhhuHH/4Bt5UCklzVq23vF5aCnVZXnvnDvzZN239lswcTm3W+9z44pNXb/e14aEgO2izB1EJ7XjqqgI3cz/3uD8a2w+6kAiNKBGo8EeZD5PTy47ObUNptER3+AqsEvW7RdNiylB7CY6esTmJQrsm07K4XvsPdz/lnnoeR3KzUjp6tUBK+3ZnwxT9ZN97q6Qfnm+TGu/f03f6MNiMISc7mLxPvpVChhO9MjAHe4Fwtp3oD2i8BjtpgBt0Y/A6MuNoHDr/wDN6Mggt3915DD+Gcfb6W/S/JgPV4EhcOLc38fJiGsrSc2oBybHVFJ6wNdhkxN+PA93v0DfacfrmvtvB92ABvMex0xwlR8gRgZp0dpi0P64qAP9UxOnB262H1RsS3oPWOndlK9FPOxNtnMP/J3RBbZgGHGH4aWttPir6YoPmfVzWDjlqnvDu5HPrruujGWOgM7oTnbL/5suna6sLDZWr6+RBh6VLqtbvoN9/l9/4MpT402pgF/x/rSw1nuS2rm/bSjj31GehrNKJ9bzZk8ITWZBjju+vIUHKYxVaz55nqj4WnAcz9fwgP/9NDL7L1kSVpBIBlvR2bXMM1IJ2tFcpoLfySq//mLCYE2jIUiGnRASDlT0s7xykbMV76Vfq+mas+wkWy5YmPsGU5iUvSwQhJdWKpxFWbxMTj9h4VGA9Dmb/8iIlT8ZlyO8HsC03wd0zJXva0OZmRY95ogSFg3po1YXpPgJ3GW8kF5Gl3kPINoDOv6afSbCf208pyUMceEUbiQaYrEX6qpZ7MnTNbfrYNE8o+iiuldS559XNbgaz9S3ndOo4V4oLY4VT8qa4PEkX1tY/5ov1R7ul6UZHywxDvU+RiSfvioCaC1HFtg+IgTRJCJaAFFONTag9sgLEThRiVgN6ozI4hb/dZF7EGoxTqj4wG0EpGfKdCyRj3UXPMtRqvznM1eiZTvrBOdSUri631BEvrZmXBGe2EQ/JAd3H9GNnbM1Y/buZkUaZNrJ66hSI6NQsNYJd32YfeXRGz4ouNb+RrNovk5VOciEvlcRN12wlwGGl9rJZTaFX4rWs/ZxE1zzkENR59qEEyH2tt1ZxX42xgWV0EWHirXwKifMpDtjlFftVuOt6ex1b3G2adxBSnebU1ektKf63+scMSHqBIEOtLWqSl1+LfTjQOSnnuqxaYmJiRwUJyEN6oxLgIzThGjsA1Zy3X6eMFASCfAVjIdVR05zxGVv2HwH2m8q5ffd0io+CXIjBZ0SWdeTAstdOEnMKJNJbfIfO00IsTix/sO5rZOaM01cMa8cmnABNZC3Qm3id83fEhhas5RrZ15yC1F6bOR2uclAlc6abL170iITUUNS8CVWo/5VhGjrd/RPPdChOvOhxxFENK4efen1SwI4u0td8zUSMM/ilix5WTnUmC4q4rQJFbcp4f6H77OD/qcuki35WXS6K8zjACQnSXvuxgAkejobQrUilGAlpZ/RGPFjc6rkHTlD5TIJwLw3KtBEvenV5AnodDeLO2uomO47G/IUyJBt4KqWLvraJxxSwLEQYDSTMnUuSZ4jjky56uIVVozacctlsFisDbkNf1D2Hup5J+XOErKpyzkyothKb1XSNbCuhzBwpoYEOcRWPNEPgQ+xGR2AJgQVhU0xe9EICHQV2FekMdjXb6KaqA/LiOBDJoVCMcRRkxeRrtjxb2Oh0ur038TQHEmShpc0uWUV1D6lv3p3VY484RT5y0YMMr2SdMpEyaNydncXYLyNCYJGLHhtpJXXNPELjJM4yGIpgkUUOcYsegZ8qGg+uQcNVSsYeN4zLdohb9DjObVjBMWGno2ldj57oo35ki7S4Ra81XoWcLN7omjbvwNX+XmwYJHLRw8CtEGviaEXDGVgdcsxHo5+ld+SIW/Sg8QbxsssPrqpt7MBP0tdWYYfiFr0+8Tret2ETp1kSZwkT3483PoiYkzqZ8Gqj49QI+DSRyAfoFONITZ+BI3DCW0I6XrRvg1BfY4UqCYxdTpxRaIKsNiEXD/o6uuU9Vgy9bgBdowa0Wm4k8Z1C9Y0hRKclsY0gTwgI4YGRcVCxHTXZHkJHDSxcqfg3BPaHm4rVdMwcww8V2eDIRQ+OMHaNcZZMQ5b9lJFWPHpX2WikRS/kP/Cb8kwmBY5Nx/6dFd0NaPkE29UNZlr0wkgETrSK7YDMm2QTWdv39OGxCeqcmc0hOFluIXybSPoZyqK+jTOB/TbDmzqOUo/CHDIfXdfDxWXOztFfRSvKEh7A0EpxUGl/1yCKQhiEwv4SZ+OhDrtulA79cVMMamdxstzLqDVk9cTRkJwvUXebf6LtmtHotE6CjMI4yb3MzoGNF5dIx5x/zQJ8I4l4NHzRRKyXFYhI5VGVQoIoI513ujqqeWwC3fsSHMQpHRc460B0Yx3ssFGkERO/dVIyFsAeJxqqMSaQwuayY8oRsYvpn4GdroZyfmwsd1n3mLHxR483HgXYLdagot0OZk6MY4fFUrlSoYNIYQLZc597rTjtM+/GxC2zRdWd6JgaQ+EydVs5ddUsERSuHR269FNnzM1JyEVN4UZwJ/wDR/Q6FpNGkzAhQ41DcRJ4Dz3hg9IGEh4MeVwRcRuet4oVBrOGqjsV+p/mrujPmOU0KYnlgsUXwSDwzVfjrXU8KnGopAUCUMwpvBkBnAY/FBD/yPeSx16g7KvU50wgLJHcn3yrNLNM+371xFMvaBqNoJuciIWyr2CPrhrTfhmR04E86QSBBTrBPyHwt5HeKs5AhrBENwfpGdM+Oo0x6nQjnsFWaEaZEhMcgIdItTh9mL2h6By0SbNV16cog5rP6vn0PPxnqEgKUzTIaBenYvJ3xwYpp5F1kGAv0o9RaTqyNBWISVDwkT4sTU+ZostjM/UXzXK4l9GMzeyH08M14V+xehyE9JhuBSv0LsB9iTVkBqPdzei02RBfCYjyH4UkBQtR6NuwPhnGTN64ucM14rp7AZ4ipMgQqRZSvqzvYnLV17CnJLqlnUTlHHRdUqCQBISc0Ldhg1jeJ2KhupavijksZj8xOEFXSRNJ+Wul+s606RIrunWRV0CCaSDajaCBKM6D6LRMaS2+NsMxdeIxkYDX7D/IDqUsorgN7GGBcTvxTBf/pHAdt9AG9BEXp76FBvJcFNxFZVKwquH+Oyw8haP65HQEpmBX+EwjxF9EARjh4KdemDZNissnVybyCrp96K7nl+FpSaRSNPh7u2Y4IsXwdeM9EhPMzfse6ApuwpN3AwJdwn5gZ3QOZmkrF4DL8LGN1goTybI+921l8Fs8WxN6E0gSLeDQ0us8eiuvi+Ke4LzJrtoaysn3UcjgqYZOqhCSLPHQoR7ptYHOg92Ciksx3FttabErs9HnYugznfouZauP7RRQqWzal4KUM8/L0p4Ik8ABr4osDdR+igQDRyKNzl0SgixcASXJg9fVi735Ry/eH1vmfDR43ermlp2JGMiM0f2yjx1kKXN+krArG6tE2nfuvbENW0HaUbm79GRzY21lWVoQyVg+GAbN5UXc3oF99YH6EKQgsz2YlSgsvbCJOiCMBTzH/e1XDoC5oek/u38LckZgs6K4xjPs4Ydfzf6VDR7dnxIctdCBApuZw7/FQMKuWi58YMPFm0c9ukqUqaZ5tBQ1s3Ks0DlPVisOtHg4q9A/+MtXS9nKUVeJkl1ykaiYqJkY+oAIq38L2idM4eb9tDwOH7PURgxe90dI0UoLiglseLayZJ2eEqRwDULKwOXe1uOHxt9GDN5c8qNhrMKXQR8YaylI1+kpoTWHMgONw4350haqBi9i9pEikCKSDhdDHxV8WN4bsZJDFC6IHIXhwYZ1d1LfJ6rY00fZnr6sndToBFwSy/mZSE8JnduJwf/IdApXiDli8DDCHIukM7081wDxhxGW5xeOaqg2FtrBvzhjBj82l5nXllM9O0vP3n1KBfayAT2IhMsSoasp3ICZIyRyogY/1lk/PH5R+sLZHYP7rF/A10MyTOl8TFC4AZWDwfslMW7wVpjJaskN1zd8J2HKFUvTYQUFzBzoZnrtQP3BL+XG3kj54hwk6VN+cYPkD5g5fiIHqD94I2spg23Vd1b/6T+e/x56IcADPNC8j0Pnuybwmzk8+MC5V2r7qtEQVvtaBEsa+Tf/ze9+NfjO+vfSSwHQgCbv40jNHD4hP9CJSc2byMKzI2f6JDi0ONt/7/+kn/zO9Bf0WgCHj6MENYHfzOHl0fbgdaJUBsspJmNjP5+1/f76YZiEAIyjyk0fR2jmCMW+9uD19pPg8rnV+viFP8w+/bGIwY/NwMr/v4Y5KTRzhAqv/uC1Nb6z6rijn86W6ldz36DXIujOkr+tTRqhmXNlgx9bJXLLLYnf99/+KPn8pwI2aRE6ktHX6k1m5ggHr8z1WoMfm36bDv/Qs/v0/sG7V3/tT9ALMX4xu7cUQ+T0ycwc3iwCa15dFB78+NKiZ+J6y8sBP++LCE3P+DV1cxkO6ftlZg5TD4HIlrooNPj7aUBlIKx9bQpQbhn6KldPZubwjhhI0lYXBQbPR701UZQqB/Z0QnZUuczM4QBIgJhVFwUGz5kj7bQTdEBnIzD6aQKixMxBZUag+lFdFBg8/2At5y8WOcqQsN0RmTkg2QPxdnWRcObbIu5s6DAB+yv0b4bDBYmZI3TnyS0JMBAqWW7YcK8dP3iQF93nOZ/5P9G/PjNHOHi6LHRmZaLtD7faIatd4CjBy7FcWaMBN2MmZLHIFGq6ZVoD4AGnCZe52gfglbrQApC3/mxNUh9XkGUbCb7/S2XaPTCqXhjfzj6xAdren8NBquxK0myjwEk1TLPMGCV+hK/d+peuCGx1SqU2eMp5U+CILAZoE31nti597h88taNo8Hz7psA2mpHFtFrSe866YvrcP3gSLmH1whWCTfhcom33aXH49EEJ9LF/8BQcCViB1wB23orM6v3Me2Y4u2HQ596BsZfQTDeEJsELvKzTeusZG5rBaXVx1MNnvxDzKm61f3Vgb8K2UcPo/w16owzme3zpI1SnGPLmrwGcoWHLNEV2yi/QG2Xws/O05Bgnqb+B9h15NdY9GK6Nu3MMe2Ke8iJ6hG2d81EDXP9tXZAgc9wNIXI5iHbQymi8EXR9sHFrHbzuDuhkstjpdzcY4UBTe6d5VQYP3l4SiFQrp0tSzjsugrK82zvQqjp48Ha2Bma+cxsPhqu4seZV0jNSeNe8zsR07mTQifS6BKqe7Eu7YVwpiLyxqzSUZTgrcsBm0OsiuMbaTQlcJ9iIt25EvKLdtHxg8F36+gZSaAidR/v9/vuG3ARe1lYeilMP3Bs9Bm8nOXkzaMy6m6SAuqwWc3zZ/9D5FGprKazu/e2KeftJPI7BNDbxPa6AGUpYoTSQuOcL2rL9bo2Q4Swzp0fmHTzK1hvz5BEUlvCBs9mj91GrLNn2ZCGErFw10t7Bc+i73xh5p0kmQeFXlh3qtarZhLU3ekGdlctl9Q1+lhmB5pLmUfp0Isg9GU9JKm+gpMN3aLVggyUXnsFD6L/+G/ROfeAoTZGLOPthPxD+YXVvlSM4tS7z1TN4zNKo71t3cVBeZL+pelTWeNZSI11y4Vi27sGbmXOVgs5Pti1W4eROosUOGsvDZ41n7ZMQ7AjqHPxMrv6kApGR3Jd1M59eDte7ieHXeChEcmQfuAavi1YznEWlSM282dteH44GsYzn5HJcoyJD41kNESxch4EL4S4sC2Z4Rml2WIIYp47zgWVWnEZ6GPFO1FPWGs+afQL16khLggFMrwlwCs5+Rv17HnFTJG2GSTz7dHNzPUSDLWbPLNJ1Zo1nFWyd80pvFACTK7fvYpMYLnHndPlNcfAT6m5BPY2zwCpQJHFkTgtPnlWwEYMODd5c8+gVlpoYtAAimBylKsEtvaBVEGhARccFRm4snI9k7QwTGjxqko3B6zTZ/UQe+Aq5LlI2LG8vyAf0h7j51JvYU9Q5Im+7vdDgLdpe9+PNyhW79FJ+V513yUyAO+JAaoLidmqAO6FE+4+smW2moHjwsDv02IcqCkRhypiu8ZNLepLVX6fw2POz/KPRxRxcUG4LPIgHz+GuZYydWU9WC7F7MAHGku+YRvRZiybI+WRRm/0eO3h94BT8qYmKq5FAlsbZK49AQ/PENOVTQGzC4thFDn5Nj137gbRvu6l9Lzqvku889/aS6kAvGCv3Gz/0d771V/8kvfCAvXaLSRUaPFJXU7ajYyS0GPW5vJdWTcaaXrnnG7oxA4Yp9b3f+sXfPPvlf/jn6aUbzFBbnPbQ4JGOlTxzs4/tgWGPsdy3lpYCe9KwpH7kIPnVr3/9rwdrD9iGtTTYCQ0eRNf22ILRMsQcO0jSM//8VQcv+UvjVzd+O33nj376z9FrJ8BTlv3W4OCZ999ZM9JY8mOH3Ef0zI/CNImWmai/9bvZW9vfT6/d4Oqy8i4ZHDz/6W/SvykKY4fc1zrtxAe1x+SW1d/99fSt4Y//KXrtBlfKDEr5GcHBFwsVEhTHDrm/iPQ35bi3c/I+r66//1+lp3v+2x8O15mhUrVU4QFF6tqodEEm421p7JB7Ad9cDbP7o5N8COt7fuDHf273H81LHjcTNqUcg+DgzXNIMtgCulykJ++NG4dettHnYwtf/OmpqXGRigUnUUzKQgja5Sdjm1FwHMhBDzdwCEFlKAs64iSKHCZYVRfHCIfS9c2Gx5ngzGHAM7sR6jxTESoeWrk2B+0zCreHZk0uTQ2eK8WBy+NmpdJSLp5ae+LjCIpAPLbQpATNmly5GVAKCXbcS4zI3OjTD2RQu5UvEdKP38r+PsGH3Ag4gu3MytEkn7cyiFngdootMvp94CN6vNBN4vIZJCiud1lnMAS+8rrS9+mqin5tCE8Ho0HllCdF+xJMGhf2uos67dLno5+jN+zgAxOqHvEUwsRi9YwnhKIzvNc6m97xdIHl9RLgEXj9VJbN1qATHgi7NHydmqFeW4CzX/x7OFvQNy79mE+FMbGbyTm4CjcNA23h12W8nbTm3FQFm3GGU5q8SJMxEH4I59YGYjK86ANk1pOjoytO0uUmyGsGR54gcRGxHtzWE7icgOHONI+HfKdNwUPzjm/vNJSCx2Dz65DOBQK+1Da/xzTjDSGg8fiUFG9SRfaE3MObSX+r2c4KXFaY+LPmwXlpmBFui2fwrPGGfveR15avzYCKarrlPns2FVlgByjrKDu/tLtlLvxDDN5jOsL899fQs3z5TspQjoJzNyQ/gl41A5J18tum0qwXBvwdz+ChFAO9Lojq9E1c5kk4yzpoUxKfKCYBJx0hW25GD//f0b++ujmcXR7YxdiQ8tgDKjT10r5+uuRkVfdfLGCxNfJ8psge6/9H9a9fTTF7HdB4nNPnUeZ0RZkETMB9iss8Yx1QWkruUMqe+qWnKLUoMjwmeBML9ERn/eGx8ZhNsyl0Zk0a1XesiPJUQHerPzpdByvvPdUFtYeeOU3AoQVPQigbTLa9hVdNo8U6vJWXVnUqXlj8vkZBONbCn+vJOW++EDq5/bbAFs+D5xiWePA2bVtK8Fe92wvSNP0aj4PBXq/2SapAbO232S0ceC3ESPRoX7eWV4GpsObrMPgrQhqPTEH/qX4zr/bfWtfYfSWFzWVwJ2AC0mo0ogeQX8uwWgyccMcuRMXM2UwoggexRoGl3pr3wORTgBVGmqbfq2XFWJW/nlx92KTMa5G1SyycOn+eD+hrv1fLm1WjklsH7G7YzSZMqZ9vB+Xhv4zlqDK/3jQ4zmjfopFqEXAj2cbzd0rVrvPNAGcI2pPkkJAdCq9ynDoQk6AfG9DL6wZLvd3q0nUWAXsaiUh+dc9Gms9iukJwNMquppE8HcqeBInpN3DZtfE5ClcHboXncJFRWxVSUVD3/l2M/cfYKgI5eq/6ww/CgwA599JR4wy3JhQJgjHk38XYjfDWutVCpr8vZdYAmx32QJyOWISeJa70W/f8rFvb68grlD1c0kAXdpsRWRnhw8tkex1zPu4gQD10KfjiNzcIfCShYybQATTczoyDuf6u4Hzij9dNqgHOFRBFhfhix5JGllmgqW0CFFP5FTlT/C31kODxiJK+uMrZvqTZAJJ4IhyGDGg8pqnKP/jFn/nRv/2jf5ZeVAXRuzILknZ5x5KGSycwSqDu/R4QG9MlGu8bf/FfHv7aL/3MD9LLKEzpR3k/na8TWS0i6TvHkwI1J6AMYQj7SXXe6Evy8X0b6W1/5599k15HYPrceJaTzzefCNM8qbLIoe8Qt5awZqB5vYYwb/QljfSXMhfq6/9agedIxLdK9I6Vr31b1JlGkpgxxMSbWc3BnVLx21yWJjz6H/H5StPDah05mKGzh5lg2IfO7soABter8Vg1lHyFH/gP6dt//O14pibZj6MrqlJwsoRdmePkYlFWJxxA752wR18Kx/V+LO26+Fs/EXEAj8J4snQrZTOwEFplDZRsKP6owIkXAY3HcYDi/vHFxN98++2f/Vvx2UqbVbkRFlWrrOnGBzLvG6SPV+Oxq/Tfi9vRF9+c+St/wc8G2DCVTLyrkYsfHDyjl3kglVyYOQc+w9vKHEbj8EvhjuTHu8rhK7Jx7G1dkX0o9D+Rfe31bYzShNMGKm5SpVwx15pUmnXN6KMehLsPovTe0+/hK6V4VdfEX0hVSEU6lCxt66ODsU7Nz8PAovel1xay86stVyBbRBVdRNI+1q0Mi1NMPIjkXqtRhdfxOk6Dwr4yU74Ism5trj97+oHMMRNcPzYaeqSZw9TAsZ/y9ILiSdXoUPW31sHrGQqQ1gZgFXncaX0cGKN6pjjvVtUen/pb6+Cx0fl5qRxw/Jev5SPbQtRBJsVuVb1Hg6/UM4gzD2yDB28bkfoEkfbtvOwqbuAXkusrBjFaEnvt0cU8VuSuejY7Trt/No6gQGJpVIvYE8Faa/AWVwQSLN7oUmA4Hs+OQ0QvE+saSnXUrzSA8ewLhtXkJvtd6z4P3RXFsCNu42F72aROk1CXdZrzsFINQvZlFat26LfLgTi4aL7EyzKw2Xl8IeZyMo9hmiOXCUKnG1mx8u5d1coN0jnliLGmLuN8TCZnPeEt/mrVHrqH3N5RelTYVYIN0tIIYz06BlSFW+7hMyj7oYPcj9HoXSN+nhSci1R0r3CMWWxEUTs3TsMDnVmYb2YlkOCgpViGFexiFakajifG7yLgcN1kFveighn4VCv9qhu+xv096ephJqdokYGXcAQw3QDp6Z56jupptWD0FTqv5qQA6VcJnRFWPgWLrMOTIwv4mZjENuGcet5FjfTae4iLeVtAhfEwfYxCjgR1UXmNp6U+nmvR+ss19SxW5tNZMjb8qhmKCVbSh3gglVYWwfxeiQFES7059S52iVmS3OdmVVelDT+BOm/sWLw585aWX/RwOaokd+upd7A0nNSZZ58mjWapnip8DzpZlFyYkZKC0/9zi17zDVUYRj31ju51PPhC9HMSBlIiuXIOQUPddgQvxgGUnDmKtLJc3YkYeurt3jBHSoqh3x6Is2QyKij9bPDhLAoDLOHmH8HertbXJY0fKQytOQ9oM0GvgbT5I+MkPnSThko/RNmITKNf6h/TVlrFZtqwcUfHNnbSOfixDiK9MXpLY345TlTRQVDrNnDWgcoBJ/gMjwQ2PgsqxWLLGqz+YR1aV4Yuy+iQuZQuNp3Kx2GjwtKqf1C5YtPLT7SxZ62taxaog/1EIqOjCtVzRPXiPStPr3fwpqmb79rSBvTOpGztSa2uKqw6woQ2WcoGMtw6u9NkaSDaHrDM+tl2hwYYtVJEjbhMWePTBy6PEVzYFZxz1oN6SkerzfqKoQCC3uzLtAZ94Ezug8YdXdT2cEPQ6uneWActgWoerdfV1mopfMNrwkkP6h2PFVF7AFN73EFWUe0jh5CUWO4VwKLmVKiGtdNav1TGDFTMJuir+l2cQIiUCmx58O5YUFcLoCiLtg6g876ifxPDuzaXOKG3jULQhz0YTyBsDnuQtaq2SWQH/eRRlQw3AAtCNXrXYAfG5zDr9XfStq2DfjCMimkuOejVlLX41+DB2+KjgN5yvXl9DaAD0pVQa5tjcF+cBDm9JRr8OPKhGm6LU4Y+li5DMw8bR1clMB1EidgntwTBGTaQteWFES5OUC3mW8Kk1iWm3uLBByL/OpjRtq0zDfWaoGJuVxlGh8FT7eEIB99BA8rWbR2jC2QTqp5gJJ5pIRcO3hQcX55LAzCec5ON2DkVwTQZefDB6Pc9LThRkfJ4/OWv6XcaNSm7eh+BsyAevLHs+43sP05oX6rBA9HGxqa07PL3ss8THrwhjietBnBRUNNwe1Lt2h+Rycy2vcBsN5Z91T7WEqBytHK0yAXtopHO48FLNtSrWfYg64dVoiU+GGauojNjBm8u+/jyGyFAYdckMWzQ3MRF5uHw4EXBaGPZ+5oI1oHR+rV53kxzoqPT1NDjwctmclJzDA0ZnkWgHU5z1p0BLVZZ7kHc4I3MsCZ8zTI0idkOc2LUlpxPg8OTrmGkhrUz9ZprjcixjoDxcEdHSDqXkkXjEPw2Vr3hf7S0rLR/OhqB16XPwgCtUzHL1geDZm5nVSUw/SYGfRSGDh82bYOYW5G0kKoCyqNX+aciIMGtcXWMeHmAWKoJPkMSiJAyJJBU7aTngqGMCkd5NIwiSxqT+gBLx099RUN73ILOGLWQqyccncY8aTw4y5lyNWAYIM0btgXkR38ekTjVQ4qmv79qHIw9qF2hz7CeX/e7clcF8tlge6FFnfTattBnmNdBuBSDDakUa63cGNViJn1G5xhXQmcjP/nnT4UMDTyvps49Myim0Wn76T8KSzoUk+FyUzR88MANWXlmumsxktoiJpAPQOhvC8bTg18clWTpQs8M0PmbOjWMgugnj37vQZAuhx3axG5HPdwVWk+AyONeQfQTnG0Gpl+nQ9f3us1E19YOT3Sit1Wc/AT7q97pR9iz/t0a/MLoXcuhMBsWjXJC4HzDM/0wx/p15V7TFxF1GY2iUzgwiHDwxGVr6QZ1NeXeyBu4ihxXOzpreZOHMPzwyH5HENZact8xZb5KbndjWLEJf2L57dmWP+IqdeR+wtTzVbL6m8Q982YMnG+ViJUm5H7WsG1qF/E1gIVXhoNh4uxV4dT5+nK/okMIiQBd/9gTdNcc0z863zbnv67cT5jLvWb5YpOYeWHV/QmOn2H703IfQQVorOvYT4KbM/YE3YdG8lYOw/3NB8r5wcxVcEGX819/fpPGnmL+Sx0yLOLkzZPFcci9vZWZB9P5dLPRcc286lawtF02+zV+Gc114uatu2kmmyW40kL9GCxt59amHf95UW6Wdp4W9cmba7FpZeiu7hVmyoL+u8ciCrCzVlxLgyZJ0DbQe7Rn8fuKOHwapEHKNmSdTmRXhon1D+HxOx2BDN1HpaEPNm+wyOcw+dyt/oHB2zW7ib6wXbYddm+ilndi6aVg/KOj7UeL09OkA3pzD55s7R6alizhsKUIfIuYXXt5KFAAGS5O3VvlxePbIvEF9BbWtz+FtwAPBts3dW8XYub+4613+z4zyIXhjoAevxXoLD7/ECcFu23XaF0tuvcsutyB/ZvmxDSAzr03Dhokh/etlyNfE7ohQ/Bi60bQNW2ht/rapQGPXq00ENq66ZhefbHzfv/g9DRbBsOTD6831pblmQ93uMMd7nCHO9zhDnf4bsbY2P8HXEQLWj1weSAAAAAASUVORK5CYII=;" parent="1" vertex="1">
          <mxGeometry x="489.4100000000001" y="285" width="41.18" height="75" as="geometry" />
        </mxCell>
        <mxCell id="PmOPJKFVFv-9QvEDGE0O-3" value="" style="shape=image;verticalLabelPosition=bottom;labelBackgroundColor=default;verticalAlign=top;aspect=fixed;imageAspect=0;image=data:image/png,iVBORw0KGgoAAAANSUhEUgAAANYAAADiCAMAAAAF1smnAAAAAXNSR0IArs4c6QAAAARnQU1BAACxjwv8YQUAAAF3UExURQAAAAAAAAAAAAAAAAAAAAAAAAAAAAAAAAAAAAAAAAAAAAAAAAAAAAAAAAAAAAAAAAAAAAAAAAAAAAAAAAAAAAAAAAAAAAAAAAAAAAAAAAAAAAAAAAAAAAAAAAAAAAAAAAAAAAAAAAAAAAAAAAAAAAAAAAAAAAAAAAAAAAAAAAAAAAAAAAAAAAAAAAAAAAAAAAAAAAAAAAAAAAAAAAAAAAAAAAAAAAAAAAAAAAAAAAAAAAAAAAAAAAAAAAAAAAAAAAAAAAAAAAAAAAAAAAAAAAAAAAAAAAAAAAAAAAAAAAAAAAAAAAAAAAAAAAAAAAAAAAAAAAAAAAAAAAAAAAAAAAAAAAAAAAAAAAAAAAAAAAAAAAAAAAAAAAAAAAAAAAAAAAAAAAAAAAAAAAAAAAAAAAAAAAAAAAAAAAAAAAAAAAAAAAAAAAAAAAAAAAAAAAAAAAAAAAAAAAAAAAAAAAAAAAAAAAAAAAAAAAAAAAAAAAAAAAAAAAAAAJETsicAAAB8dFJOUwABAgMEBQgLDBASFBcYGRocHyAiIyQoKiwvMDQ4OTo7PEBBQ0RISUtMTlBTVFhZXGBkaGxwdHV4eXx/gIOEh4uPkpOVlpeYmpufo6eoq6+ws7e4u72/w8TFx8nKy8zP0NPU1dbX29/g4uPl5+jq6+zv8PHz9PX29/r7/f7xal1LAAAACXBIWXMAADLAAAAywAEoZFrbAAAU7UlEQVR4Xu1d/18jz1mnuqaJEaVU0iugkvbQk3ICAUQEIT2LDVCQk4JeRXqtHJVGMYo1bs0f7+7O+5mZ3Z0vO7ObwMcX7x/umN3NZp+dmefL+3lmMvWKV7ziFa94xSte8dXB3PLG3uHZlYSPxweb72Zw+iuH5tvO4fldONLg8WJ/ZRaXflUws3H8BY9vRP98d3W+hg+9cMzv3uCpC+L+Y3dzqY5Pv0w0d+7xsK646y7hHi8O090hHtILD3svUZMs9EoJFSM8nsPNXghq24WUhBUvS7CVPh6rPMLeNG763Kgd45EyGNycHmwszaZnzOybld3zB1yhxLD7IgSrX+N5JHw57iw0cF6FmZXDT/qpOOyaPjsZ1LJSDc/XCzkQtcVO96Nm9A52nttMn+FJgLsNN9PaWFw//Ad8VsbDe1zwPOjiMRiuV3DYCR18Oo3rBZx+BmzjGWI8nSziqCNOcIMsjp9Ld7zHA0R43PCeDp/ZHc5zSmSwiSsmi7ci8vj8LRzzwBO7xdzMcS6S+dTCNRPEAp4nwq/+a3TlOQSnpnGPqLfnTvE3R7gT4LJJYU5o51/H/zx6uqpLyS1GT0lj/py1BK4mG29O3+F7R6P/Yf8d4Iwj2uzT92guZQ3h0zrOTAL1T/jW6Ht/wf4/xilHrLJPk1gKF/NkYmFmcImvjIb/6oD90cM5R6yzTwuxpur7GaV4M6FQLBDORbg6hb/2cNIRy+zTAzQTzGacl76vPnKD5FxsTjX4X17A3Io1oYTVRxxmGE5igu3jyyJsRYoef3q6cfP4+Bu0gWbG+TgYu6bfwjdFOIya5NPNs7OuILu1ijbHcjouuxiz4pCk6sbtHhq+Xwv9EL+hNJppI3Y3TkYg2MO3REikIp/uNml4AMziNZoyOil36nF8rNuisFejs2S40yA6Ss574AP7/JOqt9spzfE0Jrlqh9LrY1JNbaCZmxtFQTdYRjuFOYwFhifP+WvGonCYuFRTV6wZehMQs+wGiskVo36B0wn6YzDMkq4QUtFDXbKmD+AsaSZnIJmTyOGoXM+npDqh2x/gwAbaHiCXool2FmuyL6XuU38c4r4xwl0cnKphTg9LkGD0vrT2fFF2fts4WA1kqT4LF43ifk8/NwH5Gfp7SFHQ6KFKFvEdbhqhvy6NbygMXxcjQYAwW3Lis5iWUkyeAZASQs/25LfVwsESCiMCRTkGN6KF6CdGZdZrmmujh/Q9YUpH79D2AzkuphgA0WaM+2q8w6DHjfBdmrtrYPh8QVuJYHbJQrbRCP+IthKSR39RiZYXJOd1hpEkHWZ6ze3byDvYQUONOl7bk0n8huTQe9ImKTS52bjO9j6ydQPDqJhmk8IcY5Kj+RZtJRBGJyhhJQlruFVeqhWcMJlIUH8GLReBpq7Z1krDMCyvNkiH/01uiECDhQZHLaBpibYaFPjfoa1GU3LnSzuHoCdH/ZwZfIMzZ2grAcX8gKYaNRrn5oel0RHjsqTagMem6HYKXo20EJS3WWdwy2WZM1IIO9rGMT80MYrydBn5PJ/QViOIx3B4aHm3O+xW5o6PIJH0wwyn4wZo92E+2USdZWGcap0PGzrfnGMR93qyiF+PrAXB/DotgO49RVOAOuu2CtsYkG9k889nJGfeK/fJMKO9xUecKec3Eajr99HWYknQDl/8XygY8rz9f8tOjK7QLgnyV+z8FU3DCP5UL2pJcmOwRhFQRZlrCgWy5G4egeC+/LsLAUkHTY5ddlwx5zxBc4ZxjyYQOR7BdwJQ2iD7DmdhPweVMUHEDT9avP0IQsvb7IEOmEEsAyqB9MUW2uVBc7XALee41hhaLYcasFpZIpm8mCrpLYo78k5aDiL75flacYPMgK+DWQjTblNzY+utf8UBD8Dt6T8RohjjVz0QUGWIaMrafUCbYTF2sENvKp541NHQmtsPRESpZLhtoK9Kcyc0DTLDBUpzDU1n8HDqyjq0hct7gSNOQEYuldedatK7SjuDTRz15rvmcIMCzvk0D9hNsZ4WoPVTejSgwokMiVYDXcMJX2fwMtLQyjoKHe/xdfSksjHmSf6n7BRgg+jOzHZNL8xqDZNQ3Hc2bUjhtJfSoEkkCSBKF3LxyEzUt4ND/QPNbR5ds/f02FXLLqZMjjbJQrDX7qwGsiHSC5nlay1UGm/RtKxiQ7jeuncciJUcHy1qQzi87uw/1LuQYIVTxtd2HyeNOTmbo3vHLXER5c80mOEvyUguqkCBItmGQFSZ3NgGSQ6IcAgaul0qJ7XIRe6bu0VBR1Mg3hJD5Na93lSqFI2QNuQCUi2VRS5xv3McKQpErCz2qO2IAXLp3FdRLMBJvsH5vl6B16UU+JXpa2p8PriOQnwwVu/BupRgOrJMZzXa0Ux9vNxfbVkmjURWGPXhES6yUNw5ELvZCua35TKCv8Z5ZzQKhRHzMJYxTHLxSKZA5ClDXZ8eoTz/bURL7i+9GSRfwdUi5+qBIyT1qze4YFyQ5cok1GSIgg2nYijp5oSz7yb/lSDoCqGYXGI0uVQyci6I4yoafckkq4hE0yMll64veIBmzmJmkJ1aN4lVZras2toIBWS5tBWt3C8cOqj41NS6O8K9GcvrFbw5QZZLV9EqSkUcYmTc97Ddbs9Lepa5AU6T1AuyXKNTpUIUKr4400AjN+sQsEKCqiuPFEjJ1VeV9QkVb07hyoBrmo73I7B7FSApSyMl1+g0G7VGECq+MOGFCDzvR7Ig2JuIcUBarvBDbuQLrVY4NQkfMM8vMupz7Do+Riu9nDk8yWhgoeKLFifpplY0CpknXxn5bkKDqgwI93upsShUfMGYAiVGuakVgQVw/gRTFA90jneLsedS5Eq4O1jiMYBQ8QUdH1DHKgO1mZwxl1AYkWTJPxWMbt7zuErgsbfKNL5Q8QUZDYSQKkUOmtJ7FCZSFbcRs9mByHB7ur+2+DtcxZvrPjgwWZVZfDaivTOcGAjFlU5H0WHAr/B/QRVfx8XK6Jxl2HzzkDMgDxxyEE1R+adFLl+qAhKZoXICMEvdR8sVIH7shLSMuRObYIXeMlYSfEYzDYQsTs8lAOrWLVKPBDtMGeccCr1l6FVNbpaRSMoypqWbp1tjDRRKPZ/c06PByoWpy4pMLtB1mgIspiYVwVuQnAnN45yx+Kc+9NV051IrWZHJBVJPY+QY96oI3jB2Q2OxRvCT5CIjC6hHcz2/Sj5BARaUUnAKrzkGCq/yMTJlqMwlPnA3r336K0ZtuSsqupKl3DFUDlEGKHXO1S0AcAvzbjBRkmZTS2UwZZie4M3Kdu/q6nzrR7hZkXoeVCBpS9uY4c9bnjZGvpnroPKHSpYfiJSFpRIzAhSh1tFivaKQejWWSyys0QCLAsp4yxwu/BMUoTY4Y72pGs0znb0tu6rtxCqpoiVmPDlgTzFgRmrdPtR7uKeDCPWN7r4tP1wQIsVgpflg0LWpCPS8V62HBbOudTgi0WUtscR1+to+FhBUV8hFiDPun9wcEFpJa2cvaRrqBxkbpQ5OeEEkIarjbfnkesQBHajOGU0FGOVbqrZZicSeOy7MpjJf61yHNTaQiqz4s4BhL4zFva1IhyRumaM9E9UclmJQuHaGzgCD468Ks4gNXn96qhaZljtHxS+WaFgMIeQ3OI9IwFamChcT9yQ2//MLrq6iMMgWbxd1swY2p8auqEwVsnodT06VUx2WbCu4bVMZJqNpKlOFjAlwr/NJIKgps4WHi21ansMkr0wVNmMHoK+Jg2wQFKm5lAGWwKRYGJ9anSpsbB/v+Sog4cSbMwy4yBTA4FaVqMKZ9XJJW6rNGo1OcEQJ6ANdbJwAFrsCVViLfdXbMulNvlBRw5QBpDFNjj6WM+RVYaPtyFGwGtkvZfKAggIwfTd1KppqMCc/pwq3hqPBlcvmRWRMLYvbjOBFvkZWLbNZmxpMq2ZVId6IyTTUOnsrktjk+thDdh3avZ/iHuZJgQjGnOphgXuIFgEPaTBAyXZbUuxBS4t8F/e8E+ueIpjIQqRkzTafZbmyvc58RT2//gZ0gqCqUU7tObemhfuewER54ZWbVxHBy8+85GSb3UetVVwnnSUx5ixo90srLfPaS8D0zJiB5hgaybusAaxvnK1pXRjKAaUYyGCrP3r0W6Of8FwpmEI1uISWui/2iE5eIQZuhEoowmUu1X/if6Pbg1Jji8plHpaZP6hvpEoqeR3FnXu+JI9ZPgKvRX2WwdmFo2/xaJiGN/T6yu0w6lFZKbbwem80PtfXmn/w3TdfR8MGsfTzvsHXfpkqU3GFxZ9m1TR6WgRmIrVkZyuWKzzUaL3f+NZf/t3f/2i9oJ/JY/1wge9XZhxiuMISe2OlBlp5YDlUmmtd6p3JBSO1tQ/Hx0e0Nv73/uo/RqP//dnab7GmGfN8YkWGXCy/0/vwtDAcTR2QA9YJT7kkk05ZBc2KHfq+849xI+z9btKygMeO8bpNKgI35W5xTdaByAKhic4Lo82bDDVfs7yqop+4qN/7ZdL42yJbK9CuPGzJIb1DU2a8kEvI93LRKhZm/QYG1cRnB1Jdf/zz+M9fn3wjOWsGd9oZ28QNomrzRoaCYuEyrViNuDZqaLKzkliJk/H7P/jv6M9fbBbwo/hk6rOLObOrf+qKxIo0/NaOUatJWwElTmTwhz/8p5//eOebyUkz+OI4BHyCpWFtBSoTywr+MHA6fvMbf/pnf/Tb7G8jpkkNorOkTYW0LxJ76tiI+grEqh8ljsLDrivjCS0seFxRgaclYCjmR1MHDKEyYkWGa6m95EHz0Eoevqafttsw5NlJLMsrhIIvJ5Yf+AplbhRF7k4fSOICi/P0jGJRRC2MJm1GZQqncIFFLCxjNBc4jQdktISfLdIL+pAHRsDywLA6FuHHAT4GReInwBETVQGxLMMLyucZxOJ6UOJMeVWenliCObHU7rAC6yFakwRtKiDHetyZ0hU0cbEs/AKr5i1RYO0LijBSyUexLkPrhMIzsWzZyAy9y4qwisBtlMzb0w49hqoLBIjG9APNW9266DGCxmBqiaZwm7VsHkJoM/0JJyMXjda2jg/GqkZ4bJVKa4gcl5ZxtNcvRAA5ltUr8zFt9TTOn8Dhe3am4nIRDWj5f4THep0SA5nNDC29iIDXPIBLAXR3JmAUYb+W/6etuIxFVbh7Ru/wUENfTd44egovPNxbgMiETK+IsF/PXIJXNO7Hz8jErH5PDsbQEluziWFw3TVBgGdUM04QD/v1zCX2ojBpeBiP7OPxdWSa3gq6eNneC+hJvWfruvk36+NEzBtTeQLUStZfJh5SZ8543tB74Q3x0tmHE2G/Vl0h8Wn6+QTEBrlxuhkPhoFmCx1p5bl3Cpw2mcoSgiLs15oXmn8Gjg+eSN6kN+ba+rwBty6+O/CJCCT7QunHEUwuOlh7w8RmYffQzT41v598Khr/jkVoAjwMzupSEfbrO4MWI2n7s8Y8QmMdRB6XIzaE+t4Kgxcc53wFsV+8noanQE2rC6Fm3cZS9Kb/5GMYzbwS2S3K/uRIaRH2G5ZQwZ3ULgZHl1trmQWmu1FPRc5HU7/ZWBGQMc7VuYiw3/CuaQjr9DAS7MVrg5YS8116KwDuI+XpQJwwuugBgmjdFq/sdFi8DoiZFRulagVln8N8l/Ow31QsSfGLuvwV9qd4OSGZDDS9QUGwwkMiF9hYq0Us91BpN5HbdhhTmBNo+YL7uQq1IBZlmAoG6SrlSIUH47AAi7mZZesWuLpTTGrORxkrhJpU2KsyAxjHBucqi0Zc3Fu6boGmhmpnAlE3biQiaPM5xXbymFqG4oU86u92fKu1BMhqqYaQ8DeNtFFA1NuXXKfAzzXYvfGAfu9EXaXH68bNJB8fyLmdHSGww9SqBtxBUioFvs+bJZlPPwCU9aHgWhXdeqM68O260U4DwW8EM/NV55uHpF0VlOL4B+6+oOdRVynwXrBlD3ilSihHNw0M4jLVtV7gNIyaRhcMqG128K04ZbnQWc5biZYGLzFRU2KirM/KKPBCgZBfShsrey4IKQEyuJqiQc6L2suZpa04KQgBfxOWKcj3A9EVGruE0oMI9q3XpS2kTpNRRzswV1K/6QbKKWjspRCrwECSfrb+U8wfYFg+Q2fx0EPj8wmxirxyqc73fp7Hcc/QWTxQ1KR63MSS5Qr3qabzGTqLZyE1iTlHsRCwM/wr++85OouzFRo2TohVMJfY4nVtwMDsnowH/GdZ0M6Cm7UCmpBhWmxXHeOfv43jEwXvDbSzEAnJomJlfnV41N9xiCCrgk0s4WUUFiu39dwwvwniuGERK0hKYhMUFyu6a2aChecTruKyiCU6S7EG0IC6/EPiCe52vVMEHuBRvZIRERuzO2eZaPWVhLvu8qQ8ea7glWpYZEw8Knvekl8mYXi5q0+AVwhaYKuOEnnR02jgk49ZOMsOxRgPvZXxUwCUiFT5hIJ3+pmxQEGPuS7PqssYXm6OWetTh6jIZL545gc44IHGrghXZDx1x6r1KZ+uyvRwqtrEVFtR2xDxZQrn5t0CSoGiY8U+n/xnF82lPwWweCIiMRm3G+NSjbyuKZM3rr3r8WlR7kfNE9TfH2V94AT9ff/aHxM48yRTMI211Ot1ssR6tDYvFJ02PKle5c+02jSjKahvrEg7+iV4qk5rBW+7vDJH4Fpe4V4O853eVUpH/XtQm13KiRRDn+X3QmvnOmfO7uMdjsqitnYqBbGEf8P/WVQws7KYoyotgbIKP3jbU1sSDSpZ95tDYzv/EP4Kf65zrugnExJmbBwI1vLj/a7I6rkMau97Sh1rwtB5uZQL2pk9ESIMDp3il9qKxiIaMLzsjDtebx3lfMbwrOgKGx+ZHk9WJ5Jqayp8xpv39jHSWneWaXC+NZGoiEHlMz72VjVzurGwunN0qTB+hIePh53ldmuxvf7n/4JDEfqnHc8gpASWRdJT4P7q5HB7fX25nWB1fXNv7+zGovBut1Lh8Ju/+P4Pjw9WlmbHpfdsmD9WBmZO+LRbZM34hDG972h6UugfF92NYeKobRmmjAHh5fYL7CYJwWqa6S6A8HJzkkydLxQmWo/wkvbPePloxSWtBfC5t/4M7H4ZLO5f6RXj4PYsskxz4/Tqxodg/t3mwenV1d098Pnq4ri7837hKzPqXvGKV7ziFa94xSv+H2Nq6v8ASb50SoXgiDoAAAAASUVORK5CYII=;" parent="1" vertex="1">
          <mxGeometry x="283.08000000000004" y="490" width="47.35" height="50" as="geometry" />
        </mxCell>
        <mxCell id="PmOPJKFVFv-9QvEDGE0O-5" value="" style="shape=image;verticalLabelPosition=bottom;labelBackgroundColor=default;verticalAlign=top;aspect=fixed;imageAspect=0;image=data:image/png,iVBORw0KGgoAAAANSUhEUgAAAMQAAAE5CAMAAAD4A38qAAAAAXNSR0IArs4c6QAAAARnQU1BAACxjwv8YQUAAAHIUExURQAAAAAAAAAAAAAAAAAAAAAAAAAAAAAAAAAAAAAAAAAAAAAAAAAAAAAAAAAAAAAAAAAAAAAAAAAAAAAAAAAAAAAAAAAAAAAAAAAAAAAAAAAAAAAAAAAAAAAAAAAAAAAAAAAAAAAAAAAAAAAAAAAAAAAAAAAAAAAAAAAAAAAAAAAAAAAAAAAAAAAAAAAAAAAAAAAAAAAAAAAAAAAAAAAAAAAAAAAAAAAAAAAAAAAAAAAAAAAAAAAAAAAAAAAAAAAAAAAAAAAAAAAAAAAAAAAAAAAAAAAAAAAAAAAAAAAAAAAAAAAAAAAAAAAAAAAAAAAAAAAAAAAAAAAAAAAAAAAAAAAAAAAAAAAAAAAAAAAAAAAAAAAAAAAAAAAAAAAAAAAAAAAAAAAAAAAAAAAAAAAAAAAAAAAAAAAAAAAAAAAAAAAAAAAAAAAAAAAAAAAAAAAAAAAAAAAAAAAAAAAAAAAAAAAAAAAAAAAAAAAAAAAAAAAAAAAAAAAAAAAAAAAAAAAAAAAAAAAAAAAAAAAAAAAAAAAAAAAAAAAAAAAAAAAAAAAAAAAAAAAAAAAAAAAAAAAAAAAAAAAAAAAAAAAAAAAAAAAAAAAAAAAAALC3Am8AAACXdFJOUwAECAwQFBgbHCAkKCwwNDg5Ozw/QENESExNTlBSU1RVVldYXF9gYmRoamxub3B0dXZ3eHl6fH1/gIGDhYaHiIqLjI+TlZeYmZqbnZ+io6Slpqeoqaqrra6vsbO2t7i6u7y9vr/AwcLDxMXHyMnLzM/R09TX2Nnb3N7f4OHi4+Tl5ufo6err7O3v8PHz9PX29/j5+vv8/f4trzg8AAAACXBIWXMAADLAAAAywAEoZFrbAAAXoElEQVR4Xu1d+18jS1ZPk4AJT0UcUJRVRhYcBVcUHVEUM6JiRB11FK+jo5tdUVxE5Mo1rtxd1mXNmnUzbu5s/7tWV51Xd/qdTlL5fPj+MOlHJlR1VZ0653seXXrCE57whCc84QlP0HA2zi4vmydrZTifQDjPr12D9uEMXJs0zN1AFzy0X8DVyUL1AdoPeD0FNyYJ76DxhLcO3JkcrEPTBV7BrYlBJTCZNJ7DzUnBK2i3D50a3J0MLEGzA3gHtycCjpCuUtC6z+ALk4ADaLPCUan6ERwqXMMXJgBzXWiz696q3cG5ghOFNfiK9XBQ21BY9i7Mc6c+0t+wH85fQoMV/sBc2oVThaq5Yjv+Aprr4efNJbHQJ0OHWoDWahzDxS04d91zuGI3xNRx3Qu4OPUIF9w2XLEb/r16Fq424Nx1F+CK1fhzaKzBEVzdgXPX3YUrVuNvobEGHZBGc3Duuqfmgt34J2gs4DVcbsM5LROrIXY6jW1zmXSPR3NuN74Cjf0mfHb1pl06gVPXnQTq44+grb+CukZH60usE06CeEJhukLN7nkCaQ1OXHfDfM9qHENbN50LOFJqX02Ip334os14CW09KFVJIrndl2U4mgy+ADuh2rrcgWOFh/+Gg4nQnrATDXW8InpBuDLfsxqyE6WlEObmXn/Nbvg6UfocrwuCvmE3/CMBJz5MAPvk68S+d/Tv+pxhtnCrcQRN1Z2oe0f153f6CmICGI+30FRtSejtu1FytqVauKW/ZzXwqWvjR+uuekyW3+irHiagEz1o6qZ30vSOjJxa0Vc92E94zEJL3RXv7NY7Mp2o6aseXupzm7EKLTWCVA/L5HXiBbTU9ZxbM/roUN+Y1sce7O8EauLaCjV7HfAb+tjDiTm3GOfQ0hvvZFMfgjQiVtl+NRZZ17feid6wzRIvlVr6ROHSnFsMfN56NZ/pw3l9w4hbDy1zbi+q0FCzerV3pQf0humRB3NuL2hL21EnRiDh7EGlynWn4Yqt2IZ2ai3PiFuUqEyXw/yyFvS4F6v1hjHrkGfa0GcebCdtSM37HJrXZFKz8gTMprUglRv1QHcd7pQW4YL9Wzaa1N+HT8FtsPJUhyuWghUkwIcfgjsKcAk1QmvRTwwInwoRH5aHeDyHZgoswS22+Wynz5DqEGBNaVL0DlYt3EckX8nTSOK3CxcsxSU003Vv5zRd4+FT4GhO4dwYTPaCfO5/PV2aITb5s1V9k+caeretRAUa6boVdcaNvtV3WXkCC8NOUFyHnvWVezjzPC4KHOBhRsZSkI53p0+XSPdw3yijgt12VtNne9BIt6lPVz6DU4XbeaEBesaGtUCWwD3zzmZ8HpbOzjwcWa4BkmKxp07KvjhMhX+ATw6DshEcr7Ws+sAe4D7YrAGSDO1NxfbBfQP/wUbQkrgSfTjc7HehmnVvJ2hJ1Gc1He5BPfQFos0QFsf48pL4XXr4F17qx4yIUdb4hvkPNsIXwmhwAcTZFzi814PFaiwtCQL2YSfozTaXbUSwpZRGREo5wVoO0BfVq/Dh83CD+UuCtf74viUBat4zOJVYNLfsQ9+SMILU8XviDaxNBqEl8f5y79v6QJulxluk0Gv9KxzZq8bykqjjqGhdFjNAHhYEK2UrB8iB1BtoHXXUZWJglUnK1qutuSDMZVSpuWr9Hpojoy4Rj2AsP/tA2pKmxox5vbvVxK1ak+Os2dqZiMpTRUeHBze+B001cZiync4izjX1GD+HqH2AsSDIBmevhVXgbdnbyCrBThirmvkOOyN8abp3vekeVEGgE5ZnUUyRrv11b/b3qUuaPSs5cGZpFoVQkNTCrtC6RvoMrGpSQR7MuV2Qj34bN4cv1mpl2BrahgjHAEFD1toGkV7qtn8Enr8XJ4dOCaPScuoXO5Csgd/hCO6Vrmf6YIhBS29vFNJlIx1LqqqEpsgquOJ1qBbTsRaSgJwLyOga841mkBcoyyNmX+RWOSzFAJ41O4zO1GImFdD4XWwCe37/Cz7VIkD5Y8LPPDzuV8mD2rNOBWTL9Mvw6fbIjBa5Ra77Vfi0TzxNMzX2O/DZE+FAM+z2ErBNe6JILfcanI1f9SXTzYVVIrEtNoLL1hxAJ5ByAsyRxcTo2pX5WGX/4ix0IriVlUNksF0mBbNml6XX5qB/P14JJtZapo2z9NnFuAiddxDAszP/bmJVlhclG3g8B7QzPGTgp81NhE2ZtJzf+45YplDCmK0MA2Mo2QGe7Nu4O4c7UZgmMLDIc8fmdG8aOxRufILK8W/mA6xxO4AUn8dNYsxAqJ4NZvgdB9/YE2zDzP1zUrtDmXugOk4pYcceIcukWbc8D7veY2hkGYTg7HJmdtuWTZs3iTdlXOLhTxho82e+fcUKsL3pblLjwjcAWAsrIiLtwY6lzZbEN/8RDqKmOrR9XsRbU5WYsULQlWRTPEQU84ROrIkAWbc7BzfHiRDltBcV4Ac27I6vWqMFVkWNlXBCZGYpeOy8GSQ02vFXaewPFYgROEDXeI5hMRSP4+YzhW0N+PCzcCsMoP95ajpHMo99x2NZSXgTE0ENgeQdNYNEsOmYs/2ngo45D9p3HQ7aU6435EQcrzIrgjm+67rvTRRBXOoWi9Z/+Y3/gSOFcRrbDtNJF9NrqxXwjca4qOfC2E71P8a4b3PoNzxLsFNjAsE3QkSywhhNPI7d1WnLCmZo4tKtN0LHAvjzMUDIeiRoTNQldikUc7By/MDqbiMHK9QmWoBMt1gqpkIVknwYU/yT0MFxkwa9IjbUMiSUzsNtzPYyRLAOTvYZsBmxETRGyv7i3slF6+q3/0OfaIyFIxc6uCkGoQD+3dhYJtMJ2N/Y2qbKjSMFRzd10XxAF2OsSxH+H9CcImwwZqcfFmZY9SOJim6tMB6WAA+/bYyhmtAgR69CserTw3SzMnpSYnVrLBzbMuPHpJV7M+q1LQaCUiFQ7iToc6j5tvRYTImA/lG754UOiszGCmoUCTWDiFV+0L0QW+bdaIdCDAT61BdwMrWTLDWKjHjQ/eeQlRFrs/0DsU06UWK4A3uEPeuoNMsPZKSGhfAz6L/rrLEKkjgQPo/wsZpB4omMkmDmEAHvzy4dSjd1mtW5xKpssyrCJkY5FFPslf7Ss1O/oz1d2ImomdnZdcYyFBxPTdV5EbcpaW5Z+fPm82wpjWwoQlMJDC5Sv41oUcYYfA0+FUaVHiwkewBnGdwN1U/hP/lxNyKPRZ9THdDOlBOxHG5tj6girjCGJLr11FNJI5h5RxhJBJHYYRmf7GfrQqks1Fc/rkegfPTFT2tkzq8GP0s9ZFJ5WdBDBgSgEEwrMr+PATpRne0f2OG/zGhWPrr26y1860fW5D/ohFoAy2eeyP6Yc6aGn6rDWRwffnXFoX0vc3YNpIwYnqS8VJMv1Bm2Nit0cI/v2sVxyV531PyQLhZoIGy8IRsWfh2cAklzsEYmtlwHYhuMzMYTCqd6hswO5+DvIIBCiDXB3ww18Jd5GqXkzFKPYuwgZ/v0KDQHCkaxLSSC4G+GuCoWWDRdl8qUbHARPZl0oEQvbHZMw28J3b3KC26I6f/s6FGzloo1YeJ4GMxqlY+bgM9dyASx4oY2FJyapeQH+Ry9IjWRAGUxrEm4BEQos9iEhjUU0o7YpMo7H8UKJojpDXXjoTYseiHiE4ZkWAg348MOLuq4uaRgZFA3lCwmadSjAo1iKIZj4wVDKTUS+lCa1sI/QqVjNewEPY9CQA3F3BarjvAu0Q4r75+/imKKZyghxL0HElroyMMYCp/mB4iLHkgDSRe8M7rrcIcixBIbtA+Cv1XoHHg/twxnCsUX7REJjfcfm8//+2G4NwB8fu27XbU0eC8in0FRkK8A3Zx6YZiKIjScFZ+46JytCBO+6CJQnKriBR9PwVwuws3me/+0wmtOnSx4KOSLfRdp6+7B3cFQPvKLjG/Bp0KxQyGcz55/EAR8yhrna1e921ijaV4E3PhQ6FAIF4K3+aK0TUdxmElObuIQCIkUQJEeVX6Hh244ViJNVSthyqhPcVlQIloniPAo4TwQAuNeCUEsg5Kuci0G8sbwMPj7P7H66uNP/qZR/xM4VyhuVYj3pnv+KRQfKQ1h8+W4kcB0HqJhme0tbFVUWHp4S/lH4TgtJWHU69iQS5B9bVQDBe9eVM0bEdm9XNkm79yfpuxE2duD4zUUXHOkkvMOWFSyyy/B77nul18LhivZTYqY20wgJnFl0+D+MlxQKCYQ6pl/L2K8z0iERwNJA7K3HQ5PKyQKe1b6pfz4PfjK4MD5RFzyz8GFYuqKUXJKCD4UFqJElipyyQ4qH58VQZGLEtuIuz+GgwJ5FSINkNz5QayFUwBF3lc47u5wgZN+i8saIM3jt3Bt/zpcGPxdFfjy97/X9v7N+a7RNL6oLxZaWJt8LY+nG1pgEL/8mNX1EQSYETdTpemaENh/Zy5nKVqx/Dxe4P+Y+UmD1unOs9mfgRP3z+ArOYFmREBCIHGWXjtbfNNLULWcaCHofgG+kw9AyAWeOL6SNf1ArOpFFN/nuf/UPxqGDz8A38kDKO0SUMJwnXTTrwgTw5Kww5eFnhnAl+ArOTAHT9yvgzm4MaX31ML7l5LyuBzBOfnxIfeOh2UqHnxRWNSHGKdEECCnE3kkWV3Jj+ucaiCFh/nkdAX78JBht4b4qMShE067IPLZqTNYaEPaVtVj1JG7mSIwtKM4iXvGTrz/RH8EkCfMgPpwiQNZXtxvkj4ra7ykwcLr0/3EPiD5tzG7Wf/o1keqqb+YXSWvYh++ZXbP5QPugIfhZCCDox+0JX9YnvuYVdtc5p3n4mX97EqaQgpZxyEtwKFqRHqf1naVbXFv+556H9rDegsu2kZ6GWKAwXfhM1tmpAyODEH3tDArog+w3fW8+Gvc+gQLnD7OYJr0yf8NSWG6PyrMJg0B2tqeQgMLuy1CYrppkxO4hlFrbjGwtv75YDl6h6udtbvvdgfL6C2jSFqmAm/XpSmmzTvpejFPS9qLDi0fsldNIU5vqBj/MOR25AU6x2/K6LxrqjaxUyzVz7PLo2GeubOwsUUqTdzLqjDy+tPzF+n1kT6Qh/byx+HAiyUSXG2nkdQN5yWKpZ7ItWL3dZyXX0TBDRLDR3EK34FPrXDJkL1O/FsJNVWn8SiEaEheYxjE39Hvz80JGfSkoR3BUz7KJc6jMEPJ6ndiyETebiwtKoY8NmtTo3LcPI/YMIPhz8aRM+PrW4wGQjbJrZCiDqfhx7tUSEVXkjBJCle0BIxwuwQyImFYfeXrRMxdAJQkcyXbwBtfEj3tbL3FN/gkJSabzTiKtQ/stcB1iJQLXXI9FBQwUJcqCtceTZWmC/tKkgkHxHpUX/d9Wg9G26yIXkRJKOAEvuObqiyh09lxUDcsKSoDJm6kFFsQpST46S3y6o4KmAAB/anccsu0ez+mUzYc07wkHxUIgRi7au2cNiyedQ4pIBGdIEfKLRO4Yq2mjaAqN9RUoOqkkdDTPoH8IBqTyViKnE3qhNvGzWSaQ1LS+Xo1qnvrKfT+zfpJkqXGdflo7ZD8TOyE2ph3ZkuVxToNaOGx287zl3vJmiJnveE8IEUuwhiQnQgibbJTNCr7py/4R3SyYDfRZuZtDy1TOI0sSc5lyPrQGUwxVah6O9U9kdtmO2snek+YhjKycQbOosMx4H4/eoN7UoxORrslqBCJC02Uu9G+PKrTH7lj8wrwozs4KQDzgqKjgHYwLPnUbrMZ9ZhYA9HDRtRBpAiHxxPgNdzbAoIrYFqQIg/htXoXMy9bi9CuHZaPD2oJkbUdOYawHf6aj9R9PMjJgRLKp9eY60JMJDAznmK/bB5a1BsQpoV9fN+kEtKRFgXYEo3SfB2eVLf5YjCLWWGK5aSICdfOTG+JYBJrpLUVVMwNIsM0QXfSC396aX1rfWlgwaogwlzJL6qw9OpIrwOc5dF19Gh/k4h8tpCTkTlLKx6CxgvzK2Gh2ejCI5yjwYi2ktG4TafphWB2IUTR1RFb336v/rkO2xbQHIxRBYXFiIhO7MSlnzNYfl6tqfuQ/7t04V6vzRwcbYdKCCjAF+uS3PFZFx6iy4JgjlMuvnvqQP+l0L09dmnp8ZfmcAhWfdyXQvTXMYQtTz27GkrCuGjFcKxctN4kzeDpU99gxLBfqAHmeCW9Q0pOcRF7flSev2p+A/5GnKGM797JQRrxa4qH5LfQIGIrbsKjwgGnGUDBmlcDEJiJIOYpzh2MX8rufUCipDPMd4qRHt6Ne1LYiRwan9nt74da2ogUkNg3TeHqjFRMouHstd1eopDxMHPSuoqt/hQJotRi+QVkk9P7lATKtVRBSYa/9Eq/ZAZRUbE2Gqpaw/HuGoCulEMS8+vNYgcc1Ngs9Exm4N/QAmZxayO9tULhdXGOHv4DA5SgXdlPWFBob+6pdeT9vfvUHASVAIrnhHHl5CaZHE+bjw9tRH5aLU6jNadOgcdHnDDbUbfPne2kSUbtgo4ExnstpFHCfSAPajxdhWps3hc5wZYXP6EWtOl7yJVmU+4tTIvFW8z0httMQUAMkzTfSzDLp16cHiuzgwjHlPHHtNXFr+tSGfXdfM5PKOuSckVBQF1qQ5I4mKTgLfRhZIl2ZUCYabx/lgF/LGV+2AwZFEmFi9CFkc+Da2ZTJy1FsqAHLq3KyK70JPWUCLaU89QP41RKX79j7m23fZ42KJWsrsTC/GTb5AljxxcBp85uyQJ+42uyYocUT1wd5yhgUEwv5UrNBHJzdZLFP1KOyREBIRhAk08EFXhIEVhKKnseChaVm8hpPr0ZEywVC+ZCU7hKcM/ORaCBq1X4P5ZPm+e8IXsedhkzkgE0mygPLwa0snNp484LpUpgDb1y/UaLK3IzGao3X8kjI/gUUtkhuLLz1mmYwSdVI+e/URPIjZ7HDGdfcIrZxIFXkoXPBeGp0ecU/JJn2dM72tIlP1LY16AJT+wANK4CFC9J6mEoaFTT6UPEgkUHFKUDx0+a5YUGch6Di10c6R6tg4uiN2D8Lk0f2MDxYeaZTRRcmHaSE985YM14Q81wsUzoVJ63QzHRm/aFRpQ9OWhFjplGx32s83hq6QRRqtlwrNvjIS3pxnliOc27SKzs7+X7SXICp99jSPMY97uDEFzcK625JdQUW15xC07dbA0i4ZipgO3wQCpHlswoeqlnSut3yGDZlBgeJUCJ9gWW/RgAFPidbXqT2pOP9CgWpDZl1CFYHIx/KDi0OINs0iDBPIzCaZkgqnA9ZhSWpMrm8xkVB1lJLCsryeX+OmlpoaFA9uEys8LCQ3Ezxh1P9iFHPKhIJim+iF1ayHzFXp7kRCEUkpImhgVRhjOvXSDqFo6nFz8Jf10jZxOwkoKHkb/mdmq76QuZy/0YxYQaql+7H7OUtg4YYCqwhBplL5w1ka1nMNB0luU8R6SVO1tEHBMGe4BlEZU7rBxyP1b7uzDwJJC9+PALcHF4WCClW2BwRRpoF4Pfh4tDQpUCBiRag7KpClQwwsNfwcVhoHZMITQSIkVrAPgSPr9WRO2xEDhrb4SGwfjeSUGKmy/h8/uNPGxwPJzVV2S+SHzv7jcHJFIF/C9a7fwUXC4IyyfB2GODG5FEVQQC+Qt/WMg01VjwvbWM0XuThddIh6/AbwN654X8CWc1NC9C/X5jGIbYXF9R3euNnE5QwtxR+CCo3x6GA1lB1i8H3B/k97g7Swfk+QniYXvQxxOJ5ZDkte5ZHoFbXj0KVsURaHtFxYeGWqBmtsFFQkm8AKrrx5eh+wHg8WXxAtyHMlHTPnReb6X6w+WVvfOoRQC4CE90KRZLUfP45mRvYyG6K7Pre6eRSwBxfTgqrnE9ti2PrVar2Wy+bTQa9ZcKh43G2+Zd+Fbmx/XeSMmt9QjRPgBah8NMVgjH/Em0bMmBt2tDk6ixqOxJxXYQPBwVp8FkhrPeZ8tnx+PZ+ngGgTHXGGRWPZzn9AUXjZn9fLOq1dga4yTqx3I9Yf8KoHtZ3yjOzikOi7vn0vKLRuv17uIIduTcqD7bOWq8azZvWq3+DrVvm43D7ZUCOIuRolarLa1oLNSsmv1PeMITnvCEJ0wsSqX/B+UoxQWmzHT1AAAAAElFTkSuQmCC;" parent="1" vertex="1">
          <mxGeometry x="488.08" y="470" width="43.83" height="70" as="geometry" />
        </mxCell>
        <mxCell id="yr6FNqKWK6_G-drCXwzT-1" value="" style="rounded=0;whiteSpace=wrap;html=1;gradientColor=#FF6666;gradientDirection=east;strokeColor=none;" parent="1" vertex="1">
          <mxGeometry x="200" y="619" width="390" height="20" as="geometry" />
        </mxCell>
        <mxCell id="yr6FNqKWK6_G-drCXwzT-4" value="" style="rounded=0;whiteSpace=wrap;html=1;gradientColor=#3399FF;gradientDirection=west;rotation=90;strokeColor=none;" parent="1" vertex="1">
          <mxGeometry x="22.45" y="427.57" width="372.61" height="17.5" as="geometry" />
        </mxCell>
        <mxCell id="tWbgaW-Hm4aOm2uo5i-L-2" value="" style="shape=image;verticalLabelPosition=bottom;labelBackgroundColor=default;verticalAlign=top;aspect=fixed;imageAspect=0;image=data:image/png,iVBORw0KGgoAAAANSUhEUgAAATsAAAHUCAMAAAByEH+iAAAAAXNSR0IArs4c6QAAAARnQU1BAACxjwv8YQUAAADtUExURQAAAAAAAAAAAAAAAAAAAAAAAAAAAAAAAAAAAAAAAAAAAAAAAAAAAAAAAAAAAAAAAAAAAAAAAAAAAAAAAAAAAAAAAAAAAAAAAAAAAAAAAAAAAAAAAAAAAAAAAAAAAAAAAAAAAAAAAAAAAAAAAAAAAAAAAAAAAAAAAAAAAAAAAAAAAAAAAAAAAAAAAAAAAAAAAAAAAAAAAAAAAAAAAAAAAAAAAAAAAAAAAAAAAAAAAAAAAAAAAAAAAAAAAAAAAAAAAAAAAAAAAAAAAAAAAAAAAAAAAAAAAAAAAAAAAAAAAAAAAAAAAAAAAAAAAAAAAG421tsAAABOdFJOUwAECAwQFBgcHyAkKCwwNDg8QERITFBUWFxgZGhscHR4enyAg4WHi42Pk5eYm5+jp6uvs7e7v8PHyMvMz9PX29/j5+nq6+zt7/P19/j7/POP8SAAAAAJcEhZcwAAMsAAADLAAShkWtsAACLqSURBVHhe7V3pQuPMch3ZxoR9G9ZhIEBmMhB28BDCYki4seMoev/HiWxVn27JklpLd2uxzo97PxsP2O3urqpTp6q+NWjQoEGDBg0aNGjQoEElYS1v7Z9cXl1dnR+u0VMNEmH9fOBwfN5+t+gHDST4/kKLxtE/bFYvAebuaL38eGmOrgzWiXhaffjTbL1YtB9oocLQ69KrGoRg9Y2WKRxvc/S6BlPYGtIiReFvm17ZIIBdm5YoGk/NsQ3D0pR9/Xrt9XojekB4W6CXNwCWj/yLZF+tez9ob176fvLaHFs/pszrB63cBEs9enaCmxY93WCCK1oXwug4sLlO6QcTvH+nZxu4aPmNxMd0CHFEP/Jw0njJwAKtiYfnMFv6h37o4XGenm7QoiWZIMKH+0k/9vC1RU/PPNq0ImNcRdlR/+LZP+jpWccyLYi76UT7GkDAoFw2zsoY32k54gPW9iO9ivC8RD+Yaeyz1YjfStaRP961Tzv0kxkG1o4eR2Ix4EMPjmfeUWZrN6LH0bBOA3zB5x79ZFbB1s6mx3HY/KQXMzzMNjuwScvwSo9j0X2iVzOMjmY5zLBoL13T43i0b71Xc7ys0o9mEBatwU96LMPhFEl6NbOc6CKtQGKCZPWV/gVg32zSz2YM7L5L7uy2TqdTkR8z6e4d0KdPc+d3fgfYeBeDkxX66ezgzPvofXqYEPNTNsPFx9XubCUiKcp/oYeJ8f3D+4cBPJ1tzI7XQhmyHj1MjtbviLTk169ZMbyke7qih2mwMq2Z8mBfz8Tdx9IVp/Q4Faz9YJAG9DboNTXGBn3WHXqcEq2fffoFU7iv/d5jGcTMQb31/XraYZnAvqo5U0Cp65Quih9zZxGrN/pTZ4+5Q9fdDT3OiM5RL9zoDk7qS5Du0mc8oMfZ0d6+CL36Pg/q6u+x/JeafPXi4X2Iiu89ox0qO8jHeKOH+dE6fPd+pYiXOjosq/Th/tBjFbC2g+Syi179HJYT+miKVRIbIat3u0g/rAv+ep/LVp7m354+ufZlrcLcOfpY6YkAKayD6XBtdFkjCdUefagTeqwUrZBKl2F+X6gsuKaPpKnkqfNnOt64rom3Z315n2dAj9Vjcbo+7aEeEiqW5skZkMVizaf1HuNlmX5UaTAt7G96rAdbQYbUPq1+jMuOrPNv9IQu7AUdltfKeys79El0uCh+WIcBh+Wt6osHPZ32tXMdlmP/6j1V22IwMUVCCVRedPwmt9pVkb/pU7iXtxGfy/pFf85DlRevxSyFixiBu0rs+7jle3q2gmB6zzEyJRgzYMUnoTL1V5WjJRLkBoyFh9aZuPUeK3psj+n9TzAyl87yVQj1Khnczvk5jm162gB8i6eFwNGNC3rzBJWcuwzi4tkGvzRVWGLXzn95/2fEw2MQS0rt6hF69+yt/yv9h8n8vUVMv4djerYqYAIe55IlyoyWsrd9vJTJ+0IBGCs07H6jXPQZ/cQM/CHGTZWsLdxi1zul8/NIPzIEy+ck31XHz2sxpfCn+57p4h7Sz0xhwUervFSGkkLTjrGNYySe6bz9gq9zV1X4vC6T27yN7xnGRBlvAeAv66tIu6RLertkWynAyKLVzge/tf2sQhH9MnOLiQAgV0+dEioxLF99SxUWD44p1W5SXY9R75hg4QiM8Vl6sQ+TUaBedpseF9IwxufnvZTcz+sw38Bm33KXniiGifSxKklLeAsC4vBzeuLbN/L2HuihYewJZKhdanEtDMUXv94of6VPlBKPnaosHrrrCO4cY5CLkonsCPLuYXnbdLGKAOdVuJa36LnCaMh1ceeVtTdhGyWvYn0/a4B3RI/NQ+zsOCyppwKP4Jae8EBPXtBD82iJZKhhRichQLSP/N8tZRsLfNNtkZIqZaMkGIpf9ASB4soCojKgK7AqggtQGrAAwvkMvDlSHZum8HwQF68gTzMGFt7dPj3DwPKNhX7f88LiXZRt5/2gNzbd6I6ZuXX34qGnCsCa4KmENAouEghkp0VPbFX/Y/7GftqlJ83jnN7GGENDyqxkYFRTCMmJ1M9/jv+nsIC8IzZcKZOb12VVIqNpcpsFFoTCFm9TOLXOS3m08OBPQuoBkOkmFJZs9rF5l/Rk4Vhk224QYsKCa+dcFtTVyfI1Ai6LUgWZgTD1B1u7/3b+h/7rqyBewNdF2S6HsUXv7M+wW4St3SkvzhsVxAVZx4Iu8LMUSVuY/1A7wJgp12fmUfljQUXqK0Lp41MJEhiQtL+HGi/mo4zjjS5kyPZdMQ0SRA15cdQOAMoznNIW184XWD4WkjIVs7bFu8gsAf8RfgZYXOHFuS3hvY+KqDhsC3WPxgT4UViiNxLknhhYPEscga+F8VsBB3dBqJopurEKip8i9DJs7RDK7om1F9fmnb0NHmAUzCLDUkTxYmzt+Hfc/iVYuy/zDZ0O6U+7KFYfBRVFFEXC9qV4PpaYpzdG/8S0p8UlUsUWTjGd2yDq3mf9tPx3y4Z4cEeGG3jyMDFXY768YEp2QUURAFu7gEPQ/iPyGs65UZPLN16RbgqmFEU6a6zYYupqWRN8PTdEOjV4cuGSFlk2Ncdu/WiLxb7j6Wu55d96ozNje68FoUWBlhb1itHUCOsiEbYwy/6OYn1jBAv+rl1Ym3M22SMqphiDGQV66Ie166tgcu4MHVzWXa5AS4t7I6Zsi071Fz2cwoqvCe/g1EgzsRX6czH+gW6wrT+K3vlM+BmjC1gT/RXXyd4x4C1zO1WQKA8OSkwJAHtNXNzdOvav3qf+zcfVtH7lkTGgxDhmIBGr7JFUWOz4Zy7Y99/1br42EsrDQg5th11UT/REGNhoXlkpY0dMPo/xcX64tahvAXnWrJDsCfZ9nC6LpR+lVVHd/6NX+vDxt3d/FcTZdv4zjfumkHRji237WFPFeg1Jv11f+lSKr97N+en+1vpCZmEOLokv40SOsO1iG9wxmlY6o82L7v4x+d9U+Hjv3V1d/fq5s5ZqN/K+AuZjWn7bxkrYGb0n/VweLfUv24FRtOnQf7452V1NdPuztpCRhLdGYNvd0ROhwLxtehwNb989uIHahegsZ8LH+enp0ePt771IbnNh+59Zqt28JBW3XXxdMct7y9t8eFKq4fjy6Rz5/b0cGL0/Xh19X2PKv7mljY2t/ZNrIWfhwrQqKtm2g3sX/6oxKBfp2RRr+/rVR7LkhN3vuQjpoz+B4cpoC2YqnvJlQbe8YSo5DTz+sJZ3Tm5eQqYuKIf8i1UK5NclfeZYRvGQHseALoGgM9NaWN/Y2NwXcPYw3VI7FwZmvRTE0pIUJyttSJAJpVLhuCAFWHIvrT/Xz31F59rooFFUBEhS6216mZOAYlynl6aq2msvrG/tH/+6urp/zXG6jSpTnumPyroVMcHsBz2OBdGgmT9Id2335OY5y3lO9PYUAb2LZTMqWaCViOihVO8wZ/3D3Mbxw3N/4IzeYk/04Ob3v9N/Oo656gULxl4WpbIXJqpibNOpUybnbq/vnVw++X25Mez+0/mmG3zw0MKcPgBVle8SA7VGr5NHsxOQWuCdHqpCe3n/9Gbs392cHe5tbKxhoVh9aiJTpgYrOAuyokCWvU14n7B9YKpCeJ7+XiIXSg2Q2pqqfwoA5GjCugDmcBvTxSFwTjbCPz/gn0h3OgRHSd0OxguZkqeAs0k9lzkbeHM5qfFkr0zk7o7BmANTQRJKuWwzSQv4J18ySg6WgiSfCcCuA0PFD/gshpIWuO2krgSzFMPk3hNLlhu68fiwA73DXQjIkcj8E24pUgQKYAUNVa+ADTJyS0CxKW1aAEuRzLnzwMRB4bUayoFPY2KjQzQWWv/kA7MUqTpDY7OaaU0L+aCJtUNIIdUPwVKk8ztZBBzoFKIJWDsDiUao2kdSsRd7WymnCKB63kg/CT7vQH9UhjtMev/j8KV12Q/o3xkRKHHVtvZ6chAo6A0YCaZDSf+FMm7ww4S5AMmiXcMIX1IaUsDZSJ/8ZPyxkZwzkpna1w50sdTtwMnLcBZu6J/aBgodsXbJY59swO3wl56IBjvcXxkO3gK7KuV/JjeMrR3CMWn0B64l01GAJEp/0tnU2qF0TE7sssMdI0SOQYfd4MG+XOphau2w7aTeLg53xmYo6C6l3VwYWjuLUe3yO4zNsZS7MuGwmGovpM+PWkCRpHftUKAtTXqheiHzyGP4KTqHJo9Bf0b32qEWRnoJgZ3Izp1jrKdmFpT+iua14/VP9EQkFtnhzlHohu6hifn6bEBcoTUmQ/2T9P6HkjePRAYMh96WefD2tZKfKP2Tefto6JYr+YTfopcFZTGMVkkKuHYpNwSKLx8Rgv4XWsez8b4LGpum4/6XJe3bTIgkTWjEo8N+z0BnXSjvbKjvK1pgd7c0poAQOa9OAbykzmE/bXY1aKzJw0GU2SMIkeUJDQlaUFulSRalBWtnoLFSgK2IVBwHIXJ+QgxsoU4/BbvbpieUA9eC1EFh2TEVw44RQGtswo4Dpc3QoqGILEAF+aSiJSps+4c+XSbWTlfXBQgkpWlMtlVsJUE8jLu+bC2INU25pU5ipgYxvBpB2zyzgvr4FK5fVHFSpoGvX2o7EcIrUtBB5KXPg0CliEyJmQlc0izzH9FxVlVimheaass987nqOho8oMujlAJHAK/skyLf9q7LXICj1kFD8dasshTPPAs+1G1/MMjaJMFc7B7ZSi078O6lsRHIJ4UqSn5h6GIn8fnUX3h489ITCwlKThbADwRNQ02hGb5x9WNx4BZLv3e4mUrTqkuosdPURZzTUKq9Y6QLY1qNeYAEJTcL4Af/bM9a7MV3+u3qS0Gx7aSEPsgn1b0McWr1EONz9MuVd5nBthvIvnNsu7x1iFOYh5OnJzaDYFtxPzdsOymlBD9JfWwjdHPWYWwRNqnNK4EWCZuI4gOXNWpwz+EhO7aG+ILz7kqJQvg+0m0HD1oLQ87Hjg/Ua7h5zw2VDDW2ndR0giDPKkGJhwUaVMeIJ94aSmHbWWw7qZGF4EJTYqbL94b6nmtQ2igspE2+7ebhwOrSua4ioaXBXjDdluskKCIK20hUSbcd0uv6pAl86vhQeRqau8eq2DMQj9JtBy9Qp7wavrfzqjy+QE2wIuq9iy9ampPFn9aq0wQprf5SFQaaK9Hp4nuWbju8UmM+ywVPm6jPy3BT69wpYIESZ0fn0ApHVR519eYyzAdexe5QPvm5zb8XFfE4iyKlPg8cV1X1EOMwItTg8StPuU0SxpXK6wxlQLpQRgIjA20rsn9e/5XQb59fecprmHhU6zzkPbX4XbJAAaJGVd28vIxR6JUmTOBVfeV1hSZcOT8J0oUyfRDidGV30KRrSYTEgacvhqqbqHCFQN7wAi3CJTcnn7StjGmf3GpR3g5Pp36q1goIttbO0+uhhR0seYf4g8/KEjzWpW1fRP22Nndj3xTnL3h7tXyxGUJZiZiBuw0qCyHaMd/DCu+v2FccxQgcax4RB0oJ422n/tTzNHgzHedT8eJxHygPqcHUEZJ8L6gnrYLqABBnu/ZJcS92YRBE5rgPRz/eB10CMZSosaIqQPbiXupqS2wtnpPL7K3CXse7oOC9XpQZiiSwkIFyca2UR+a8W+bQBddYbGoFcYzpoeltTsG735tSOg9GMquGkA13ihcDcJuuRzIZA9/i2b9Ubj1sm4wbD4sfe5ugBUpfK/UUCt/iOX2FbcvybjxmyWIT5dxQGGq45kMLNP8EN+p0OHzjZWqwxaxNLP0EDkDSDl8XUKw3weBIlbniIXMm+SqryI3rRggNhZmOYSHY56mzMd5VbX9uxTNsPOjmY3ieeQS88fqaxV9X+7ocmFUhRTPGvRo5BzJXWTYeop6YHQUnMr42eH0cffaUumAC2oKXPMbgp5KvKc/GYwZ0QI9DwAWFsSdl3dud+mpTtzkZOsGbioPLp4SmF6iwWzg6mOX0SWzY16WLU6M1Ccztdpy/CoTiObKZjG6PdA7n8G3Hk8XsSGklWVZg8Alv+3nvCL7xUk+6ZOc9ira3uH4jNmvQZltCYw3nGHtcGOrh82dO/p9TAmnfOstVRhEBELRL2uawVNunbqagEzy4zvAqFzvFM45pVWX0z6I21RbeqKRQibVU0VVVImAZjU6A95PsLguXM6aUsaJTd7iRWUIvG5kgiWVuVacDw2AdcS6ewX7YzXrz8amk6XwEBCWhMeISv1xk+4lJ31UntMLR5cJajq/zbDJYLmdM1doa0VZojdAyXzp5BtijUFXlvKVY41e8gNefWXgCbrxTsSlsv4atuBBDPic4D9svzseJbkshYOU2aDTGsG/Tc7O8NDRVTQfzyqY9Wks4FgNlJ3Gp9zXqqcryL176GQLCU9rB+ygsTFfeyLbrVD1pV/BCc2XOfVic3AJDZQOOun9CV6+f0ufj/GCaFCBjSIK5r3XRBT2gJ/MjzRzGZOj8mPZYXAz+pDkqXJ6SwsVCbVogMDwQrxKpejs5mCultAJz+RyelAD7LrnH3MHHTdE3E/SVLzMuXnWOrbLwii6C1JGjBK1dHjkKeN5NevEhI5JixCqjl2zxn7TZINkxPpWmFKkjk4YuHvOnghIW+DhKdvFB85BiEDxTNonCuwXxAump1U9Yk6/lQZV6z4+tmxDDMfyT5I9BgZjCS2FbnTNQrZ+CJtI5V+2vWXtnF9uqfykw9zNk8w0OE/w9xLTJddTsn1Cip7V9LUaKQwOBvWJYO0GGz8WrvMAdMsnETRgwqnjshbR3fAvnXhaamkVoxvrddLxxL8vvobNu4l6gkK2vfVsXNTMTPBmUiqnF4rTHbP+Kv/b4hZfUmcVq/5MgRiP0zIsn1KFzLPr2E3wexF57uOWT+gAs0TOYJiUiRcAVQWuf6yUIL3EZWDiISX1Pn0hGxKB6VmIam1MO80P0tccncCVjb3nTWj/sS6UxU3FYCV7io7OoXcXTZcmyFkJdlYCvC9WVIAViR6gFmKAfldLFC5M1A/Wriyb4ON+s+EUXQOs4mNu4D2dYuCo8UcI8eJv2zxRLyUuBbkDI4gxDAw0+nzZJXShvjuThb2UdOglWgzbxKaygAkKrJPpZ3gFnjP6Peh1WH/YQr3qwT6c/LLbnJz0RB5jw/3Wc570qrFx289/6FQjU3qa4Ne6lJIhF2SX63FrVQwqpxcLdKElUH4UlDMknnAcCJwSoCS48eDQKauYNoOtFWVlkwYTdwMH9CKScwNzLeSgUoxkuNskIomnzDLdpnwUOrl8xj2yZ3MNjd+NI2023rbIxJAsRcumMlwPsno8X5Q2KpWIy5t1pmxjhXjAKx7UxfWY+UnFKBvTCE+G83bvsbWNsoC4JyZgSUzNiYALaFbkHjS8EY9yP3ywGhYcny5bBVChrZRbAWKmQZSRtBCyvLYMCScG+mJGZ4OVwYnN5WCaJr5AL1xaHHXy8qcztWod3d7+V1MbMi0lUD8PzZa5dlbYsR+OEKvh2qrEzRSu7nskubzoxjCfNmauoc0hcedEJEgRjfPLMdHzWgnmCBVXXFY4NDAIJQywfAINsYjp9KdE6nrIZHKO4Q4vWjSbE1SVF5zRMQOUhLtgCa6C0Ar9qaP2MSnfFxc1MJqYvIqsIFk9CL764sIxFZLkGx9YEGyECqhgPr8UiMvXdl6uIuaPg5ovhoUD06YrIKoc9fzYyST1xHTNjGbF++tT/By1LHNcFRXGVFTsawIn3aNKBmQp9U2yriRatS0wmAqZC3+zDikKepcWAOKP92KoAtNyNHDaOugqlU2vqANSp9+mJKUABlSNlV0/I1w4poZmOZsMgXzu0ZDNTZl0hyNcO5QSzzgRMQb52LM+WRPITg+5C7Vxr+dqxVEemjnkM84+OM1LaQ7IEkK4dVIt5xv/SCI23em095ICiyDkQ7nlYFEYnqJpVXg4grog6kjCzeSRQ8MDrZG+gNImUmqBvWZ68NqgYNR0QywE+zTxK7c5EfJG2JAlYx8Zc9qZs4GsX0R8fpiJXrzqvBtt5q1Eli7h2EdHqGv04ZwcKa/+xdxtfHVg5WLQykWuH0k8FLR/rBlqZyLVDV4ZqFmZrBa1M5NrBd26YgCB4rVPE2kHfOIvSu3hIbQXiDnrcAOBrF+E+pF27juuNXB6f7M1APpKvXcR9xtYuoWvcYXqDV8WjmkoILjlWs3YwLfpKMUoDXp8Swa0x5jPh2gkFCbXfeNgnUTJsphVN2KFRaABSe4cQaxelg6IfJ9WP8ak2du2tBdYuiuGgHyeeiYvyP3XNK8sKEGuq1u7b6tW7u+keZ0DWDfdN2dqVG/M3byHl/9mAtYsqO6Efm2uCnQOt00/nJXbDH4/FwqpuE6xd1CAQpkxWWN2qC2sexR2zeF49pqrqJOnascaO5WfLF6hSOEaN70kccmUPBEjXjhV+51QFGADakNDjEHgd6Y2tHZzdsrtr6KkZozr3cs2qzJ507dBDq+xhAgoG45Zm3G/jVrmdjVo7BLylV31SMvQjlqRtb6oLs6VrByF8qnENRcDLAQ/NdXCRrh3G9Ua9oDzYcXfeg8G0inTt4ByXf+3cL9qoQavX2pmFibVbOvpR1CharZCvHeOU0g6CA07c32DnL4G0Siehkq8dC8qyFh57ghY7IoWZFNbV0OkrG/+sBhAVRq5d3qCMJnPlHB/lvc/XUnUZRW4mcu0QlNHjtGA9fXJp0FjAVarkm3ztwCxn3DhsEmEuMgF1WWXaeJAbR45uR0Yjq8NOX0+utUN0U6bEJdrNRBpCdOfNKsBre21F8s04pmC1TEwYLz2OZFtRI5CZqm6dfjnD3/nqUrwpo8MydSzgzbUj3xWOS7HZnvaPi/uLUlVSoq442hKAF2u6o/jBhwtGu530gplt4BYFdMn6oidCwAos6i9sSgc0o4yZgMwaDKpKkdQFaAQaE+kz97n8mTKzQEe3yLBCCMoatbYPGEkYk41ApqwavdyNAb3cYvg1ZMqaNmQi+LT8mCnZcI4bB08EV2nG8BNtxhzH2OIZBGqyY6eBYkRUzVol5AMY91glNmZX1qr6NS/QVzvGRRH6Ls5we+Mp8BmLx/RMKGBo6zC0UhU4ExDLazZrFwI+kCY2F9Gs3TT4KND4op1m7aaBwVmSbpQs01WXOgEVwPC3UfyMLezPSjdLVTrEy4KVlTDCaDQb2RK0AlA7xIu3Nv5Bz0QBSdzqslCKh3jB5ZUm28GQxjAGJYfiIV6oR5D2y0ZWoxqTLEOhdIhXC9ddbEA2BjKRSab8zgLQ6EnutqHsIyabNlPgo3vlVyiGXTQtjicAK5eA0oTCUWaRZwOcbk9QGfuDXtrQ7hPwOZYJtGGILBrafQxkF4cJvB4LQ2xnoFWRFLwfTyJNIXLgKoPCqgJClGSxAvLbsQTzjICJmxLOVWZ9Yhvv2AuNPSSznBAwNoIeVjDiIqGCF7N/69TcORP4wOOY4nof0F1bOk4/M7onvd7v8rNcnH5KqtxHBKdNObs24SY+4insEoAPY0zqc6BSwNZ0aNs04rDskQvPyyYeddeCd5yvv3YkWNhXcmVumw99T15vAulKzMDQPLihX1/yfrbcyH4mZ6GRaNRkaRmvX241fReEcRoO3cKobj2HlpX8aboSFIEzKKM0HgFqQfXsjLYX6TyVqzQ7AIvfdqnaxfBDq4c8nh+rY25KVZg9Ba6T/UiVc+OHVpe0YmEjx8qtXfcutWcEkGxNGyJgPl7Cdr1GcTDWLujuZwRGJLUnxXUE5QucOl6QqVf00eG3XepENajm8mnJmNul9dRy3y698hrZstfSGUP2tebswhKLJSZpytLAk4dyZeuFh1yUTiU+JHeOnb6PIpd2v5ds4zGmwtZ4E3NDkcnRgHtctmoBNjlHo7jSa/YwwXsWPdUyNl7mxlqa4DEVtr4j20WCJ2uukGfXSjacoj32Wgcar2HuFWeVj3IaIc8wWi1Y3vuu8bLj/TycYVYeCW7KYLYEAigey5Gh5qK9mVJEce8sj2+LL6BsbopOtBBROR85um+ixmeWKuC5zDNXd/EWmKgUfH3FMYdstlyaHQuoemZnqCpqr51hPmp2EW5KpSukUmCRcwB5ayTgH0uq0GoDyElSEu0h4FNXy53SUgWBA8ivxYEGdCbclA6Mo4oEISZwz0TvBeghlPR04m5KGZM+igENU95mrwTuptSyxb0IyriPMVRSQboAo13husZk4K6dqjgKmqW6H1qBelIl/+LFGfVWH7e4xnOkjOzVrIkqC/jFLunkkQbSyau1wAoPxp7VubJcE1Xj1mQWqmSVfkyuPlbi9JQTAmunNDvD00Y6VQyFYonLYz+UJme4u/1ZbrVhdiBsd5zv9JQi8LvgsZ6MANp5qh9bzNWj9SwLFWzsl3Kekm88u4Y9o1to46RDbbjKr9J++Qvo0kKQKT7QUyqB3hU1dFR4UibvXLUIgBFIXIRbGfAUhSZ+l1UeuqhZaCakKPIlZKOxwnd2rTxkgfDsa5MscR+oVhtPMBQa9wQmEpZ/knlyCHp2nV05OK/ar486hevZR1psLAPm0ZR/DHxS8BSq5nQMby+tjpQuFnPcUGTSs6cARLR1MRfogqq/M+w891P+0FNqMf/z0KRmCBNjTbRvEv6YjrranaEbFpnrlLnFbaxeQzFBi0cXGhiH3clnMdbAa4kLd4zk7YX870h1XHvi/V5TPVPmeD7WeTXidAlKIVtl5GxtsnvbkMKUBjRPMDAjtekI35atTv2+AHbVELkqLp1tqvu6WKcWPfM8LfhQFzNud0tYOoN5hCUuoncPmJqLgk+zvjWSTLKEajstXHEUMP5/jL9KeBtefWWE3/It3ZtRFTofX+PiVUXKtgNPK08pTVJMakgZPg1LMve4U+l+byrcSuZ0mxjW0hHvuqGJL8uHHXHxPlUQA4cTE/RhgGNYFDwFtX5WQmyJBmOoRIawvLO/bcBFXeOtAIpZOtfa8kpJ9y1UR4rcFQKxgpbOfRNCdbPjXFekstv/lRe0dH7P3HGeKyFGXi7+wHrwmXrnswJCFaHtiapbOiss3n7GhV36AY5iLO4MipY3CFyoi/OSp88EXYjzXnzGZRda5DFeSl02JfSfUBMN5cWqeIU4wxJnvUV/Xok7nx9+X8W5Kqs8T4wj38oim26L14jjfBVo+WMg3szvJVKc+y2Gc68/55QWPo9gUKrEvN9iOMPjkqnhfXxd2criVsVQx8VrqbShbS7YcWGGmU6BwKXnOL3yCBy7QqlYCZfOxYH/3JZn9ZbE5JRzWcrimmWhSsHD3zI0QvLfxXpkNPnROuVSH8JL0avX5tKtMUrMMy75aKkJXnaKPCQrgn7GUZmL14EfIhfv4X2/sNU79B2EIvm6RJjz8VIevi43i1i+jlB04mJYgdKGNZ9LQChg+db9Pme/VNFEFKx9kWMEBjf7JuPIYzEN6jjPJYph47EdtvdcvP7aMLP9ur5QwnXrqtRleHva5HoY3h7oTwvtiplEd8tXrZhmg9cBBfH2e1MnPb8gyNfHeC4fsSPFmt/Q+TC8+6mn20r34CbgJ/0q0sPMjpWY1XOP0v2p6rbsW7d+E+FaeFOiTvVYPPO59tN4vz5cVbQxuscBKszFY2XsayhWZMvnjJ7+HKzkvAHbe3dT4bRjn1TzvIpYOZsiWaZgv14fbWTTYFprx4/BszrGR03K8+cPboMMXxjs/lPv/opwceriYH9/f2fDxeLCwsL09djePH6I+MV3NerJ3Nr8HRpxpEXfxUtvgndfetiHQek1Hmmx8OM+yfbLj8tqG4kIuNtPZjzy4vOmAqRJVizsXWhbv+FFDfsuBTC3/aun/vw+/6hS2J8H1srhtcIN+HVhXPJfMOa2T24VLODXVSH0dAnQXj+8fMp8hIcPx7O246Ywt7Sxt388donHuHD943vXi3t2HbpoR65/d7w2oxsuBSw3slgYhxi7bqzhYWOlfv34GjRo0KBBgwYNGjRoMDv49u3/AR56SICQyz1nAAAAAElFTkSuQmCC;" vertex="1" parent="1">
          <mxGeometry x="281.65" y="287.5" width="47.12" height="70" as="geometry" />
        </mxCell>
      </root>
    </mxGraphModel>
  </diagram>
</mxfile>
